<svg xmlns="http://www.w3.org/2000/svg" width="90" height="90" viewBox="0 0 90 90">
  <g id="box" transform="translate(-4.75 -4.75)">
    <g id="Group_375" data-name="Group 375" transform="translate(6.076 6.076)">
      <path id="Path_169" data-name="Path 169" d="M6.5,6.5H80.439V80.248H6.5Z" transform="translate(-6.5 -6.5)" fill="#fff"/>
      <path id="Path_170" data-name="Path 170" d="M6.5,6.5H80.439v9.095H6.5Z" transform="translate(-6.5 -6.5)" fill="#e1a705"/>
      <path id="Path_171" data-name="Path 171" d="M0,0H4.547V18.189H0Z" transform="translate(25.01 62.524) rotate(90)" fill="#fff"/>
      <path id="Path_172" data-name="Path 172" d="M53.7,6.5H49.154V24.689L53.7,21.656l4.547,3.033V6.5Z" transform="translate(-16.744 -6.5)" fill="#e8e8ee"/>
      <path id="Path_173" data-name="Path 173" d="M87,67l18,12.444V108.3H69V79.444Z" transform="translate(-21.441 -20.957)" fill="#676868"/>
      <path id="Path_174" data-name="Path 174" d="M86.75,103.5h9.095v13.642H86.75Z" transform="translate(-25.774 -29.794)" fill="#e8e8ee"/>
    </g>
    <g id="Group_376" data-name="Group 376" transform="translate(4.75 4.75)">
      <path id="Path_175" data-name="Path 175" d="M6.076,63.793A1.326,1.326,0,0,0,7.4,62.467V58.993a1.326,1.326,0,1,0-2.653,0v3.473A1.326,1.326,0,0,0,6.076,63.793Z" transform="translate(-4.75 -17.471)"/>
      <path id="Path_176" data-name="Path 176" d="M33.265,94.258a1.327,1.327,0,0,0,1.326-1.326V88.384a1.326,1.326,0,0,0-1.326-1.326H15.076a1.326,1.326,0,0,0-1.326,1.326v4.547a1.327,1.327,0,0,0,1.326,1.326ZM16.4,89.711H31.939v1.895H16.4Z" transform="translate(-6.929 -24.534)"/>
      <path id="Path_177" data-name="Path 177" d="M101.074,78.306l-3.139-2.173a1.326,1.326,0,1,0-1.508,2.182l3.143,2.173a1.326,1.326,0,1,0,1.508-2.182Z" transform="translate(-26.651 -21.855)"/>
      <path id="Path_178" data-name="Path 178" d="M93.421,92.092H90.953V67.035l1.713,1.183a1.329,1.329,0,1,0,1.511-2.186l-3.8-2.626-9.065-6.267V6.079A1.329,1.329,0,0,0,79.985,4.75H6.079A1.329,1.329,0,0,0,4.75,6.079V41.016a1.329,1.329,0,1,0,2.658,0V16.522H37.142v7.785a1.329,1.329,0,0,0,2.067,1.106l3.823-2.549,3.819,2.547a1.329,1.329,0,0,0,2.064-1.1V16.522H66.744a1.329,1.329,0,0,0,0-2.658H48.915V7.408H78.656v6.456h-4.6a1.329,1.329,0,0,0,0,2.658h4.6V55.3l-6.315-4.366a1.326,1.326,0,0,0-1.511,0L52.792,63.406l-3.8,2.626a1.33,1.33,0,1,0,1.515,2.187l1.713-1.183v11.62H7.412V54.56a1.329,1.329,0,0,0-2.658,0V79.985a1.33,1.33,0,0,0,1.329,1.329H52.218V92.092H49.75a1.329,1.329,0,0,0,0,2.658H93.421a1.329,1.329,0,0,0,0-2.658ZM7.408,13.864V7.408H37.142v6.456Zm38.848,1.3v6.659l-2.49-1.661a1.329,1.329,0,0,0-1.475,0L39.8,21.823V7.408h6.456ZM77.472,92.092V79.75a1.329,1.329,0,0,0-1.329-1.329H67.028A1.329,1.329,0,0,0,65.7,79.75v2.975a1.329,1.329,0,1,0,2.658,0V81.079h6.456V92.092H68.358V89.686a1.329,1.329,0,0,0-2.658,0v2.405H54.877V65.2L71.585,53.645l7.637,5.28.039.027L88.294,65.2v26.9Z" transform="translate(-4.75 -4.75)"/>
    </g>
  </g>
</svg>
