<svg width="120" height="120" viewBox="0 0 120 120" fill="none" xmlns="http://www.w3.org/2000/svg">
<style>
    #bounce , #rotate {
        transform-origin: center;
        transform-box: fill-box;
    }
    #bounce {
        animation: bounce-in-fwd 3s linear infinite;
    }
    #rotate{
        animation: spinner 3s linear infinite;
    }
    @keyframes spinner {
        0% {
            transform: rotate(0deg);

        }

        100% {
            transform: rotate(360deg);
        }
    }
    @keyframes bounce-in-fwd {
        0% {
            transform: scale(0);
            animation-timing-function: ease-in;
            opacity: 0;
        }
        38% {
            transform: scale(1);
            animation-timing-function: ease-out;
            opacity: 1;
        }
        55% {
            transform: scale(0.7);
            animation-timing-function: ease-in;
        }
        72% {
            transform: scale(1);
            animation-timing-function: ease-out;
        }
        81% {
            transform: scale(0.84);
            animation-timing-function: ease-in;
        }
        89% {
            transform: scale(1);
            animation-timing-function: ease-out;
        }
        95% {
            transform: scale(0.95);
            animation-timing-function: ease-in;
        }
        100% {
            transform: scale(1);
            animation-timing-function: ease-out;
        }
    }
</style>
<g id="Group 406 1" clip-path="url(#clip0_232:592)">
<g id="Group 406">
<g id="Group 385">
<path id="Ellipse 9" d="M60 110C87.6142 110 110 87.6142 110 60C110 32.3858 87.6142 10 60 10C32.3858 10 10 32.3858 10 60C10 87.6142 32.3858 110 60 110Z" fill="#676868"/>
<g id="Group 384">
<path id="bounce" d="M60 81.267C55.7935 81.2672 51.6814 80.02 48.1838 77.6831C44.6861 75.3462 41.96 72.0246 40.3501 68.1384C38.7403 64.2521 38.319 59.9757 39.1396 55.8501C39.9602 51.7244 41.9858 47.9347 44.9603 44.9603C47.9347 41.9858 51.7244 39.9602 55.8501 39.1396C59.9757 38.319 64.2521 38.7403 68.1384 40.3501C72.0246 41.96 75.3462 44.6861 77.6831 48.1838C80.02 51.6814 81.2672 55.7935 81.267 60C81.267 65.6404 79.0264 71.0497 75.038 75.038C71.0497 79.0264 65.6404 81.267 60 81.267V81.267ZM57.873 66.38V70.632H62.127V66.38H57.873ZM62.127 62.88C63.39 62.5031 64.5304 61.7977 65.4315 60.8358C66.3326 59.8739 66.9622 58.69 67.256 57.4051C67.5498 56.1202 67.4972 54.7804 67.1035 53.5225C66.7099 52.2645 65.9894 51.1337 65.0156 50.2454C64.0418 49.3572 62.8497 48.7433 61.561 48.4667C60.2723 48.19 58.9332 48.2604 57.6807 48.6707C56.4281 49.081 55.3069 49.8165 54.4317 50.802C53.5564 51.7875 52.9585 52.9877 52.699 54.28L56.872 55.115C56.9907 54.5227 57.2752 53.9763 57.6923 53.5394C58.1094 53.1024 58.6419 52.7929 59.2281 52.6467C59.8142 52.5006 60.4298 52.5239 61.0032 52.7139C61.5766 52.9039 62.0842 53.2528 62.4671 53.72C62.85 54.1873 63.0923 54.7536 63.166 55.3531C63.2396 55.9527 63.1415 56.5608 62.8831 57.1068C62.6246 57.6528 62.2165 58.1142 61.7061 58.4373C61.1957 58.7604 60.6041 58.932 60 58.932C59.4359 58.932 58.8949 59.1561 58.496 59.555C58.0971 59.9539 57.873 60.4949 57.873 61.059V64.249H62.127V62.88Z" fill="white"/>
</g>
</g>
<path id="rotate" d="M60 120C46.1581 119.991 32.7448 115.197 22.0322 106.431C11.3197 97.6655 3.96655 85.4661 1.21832 71.8997C-1.52991 58.3333 0.495764 44.234 6.9522 31.9901C13.4086 19.7462 23.8989 10.1104 36.646 4.71495C45.7692 0.855015 55.7064 -0.685279 65.57 0.231632C75.4336 1.14854 84.9165 4.49411 93.1719 9.96954C101.427 15.445 108.198 22.8798 112.879 31.6099C117.561 40.3401 120.007 50.0938 120 59.9999H115C115 49.122 111.774 38.4883 105.731 29.4436C99.6874 20.3989 91.0975 13.3494 81.0476 9.18657C70.9977 5.02375 59.939 3.93457 49.27 6.05675C38.6011 8.17894 28.801 13.4172 21.1091 21.1091C13.4173 28.801 8.17901 38.601 6.05682 49.27C3.93464 59.9389 5.02382 70.9976 9.18664 81.0475C13.3495 91.0975 20.3989 99.6873 29.4437 105.731C38.4884 111.774 49.122 115 60 115V120Z" fill="#E1A705"/>
</g>
</g>
<defs>
<clipPath id="clip0_232:592">
<rect width="120" height="120" fill="white"/>
</clipPath>
</defs>
</svg>
