<svg xmlns="http://www.w3.org/2000/svg" width="76.435" height="90" viewBox="0 0 76.435 90">
  <g id="clerk" transform="translate(-13.678 -4.75)">
    <g id="Group_379" data-name="Group 379" transform="translate(15.009 6.078)">
      <path id="Path_191" data-name="Path 191" d="M89.207,96.852v13.625H15.43V96.852A15.191,15.191,0,0,1,26.887,82.125l.2-.052,6.835-1.732L52.319,75.67l18.395,4.671,6.835,1.732.205.053A15.19,15.19,0,0,1,89.207,96.852Z" transform="translate(-15.43 -23.135)" fill="#fff"/>
      <path id="Path_192" data-name="Path 192" d="M52,67H70.228V78.582a9.114,9.114,0,0,1-18.228,0Z" transform="translate(-24.225 -21.05)" fill="#676868"/>
      <g id="Group_378" data-name="Group 378" transform="translate(14.144 24.78)">
        <circle id="Ellipse_7" data-name="Ellipse 7" cx="5.506" cy="5.506" r="5.506" fill="#fff"/>
        <circle id="Ellipse_8" data-name="Ellipse 8" cx="5.506" cy="5.506" r="5.506" transform="translate(34.476)" fill="#fff"/>
      </g>
      <path id="Path_193" data-name="Path 193" d="M50.414,23H66.667a9.114,9.114,0,0,1,9.114,9.114V45.762a17.241,17.241,0,0,1-34.481,0V32.114A9.114,9.114,0,0,1,50.414,23Z" transform="translate(-21.652 -10.467)" fill="#fff"/>
      <path id="Path_194" data-name="Path 194" d="M72.158,12.614A20.891,20.891,0,0,0,36.5,27.386v5.278l3.19,2.413a31.684,31.684,0,0,1,17.7-5.7,31.684,31.684,0,0,1,17.7,5.7l3.19-2.413V27.386a20.843,20.843,0,0,0-6.114-14.772Z" transform="translate(-20.497 -6.499)" fill="#e1a705"/>
      <path id="Path_195" data-name="Path 195" d="M78.272,38.345l-2.414,1.823a9.106,9.106,0,0,1-7.682,1.58,58.937,58.937,0,0,0-10.79-1.754A58.937,58.937,0,0,0,46.6,41.748a9.106,9.106,0,0,1-7.682-1.577L36.5,38.345A32.185,32.185,0,0,1,57.386,30.12,32.185,32.185,0,0,1,78.272,38.345Z" transform="translate(-20.497 -12.18)" fill="#e1a705"/>
      <path id="Path_196" data-name="Path 196" d="M81.241,83.552v28.405H30.78V83.552l6.835-1.732V100.8h36.79V81.82Z" transform="translate(-19.122 -24.614)" fill="#676868"/>
    </g>
    <g id="Group_380" data-name="Group 380" transform="translate(13.678 4.75)">
      <path id="Path_197" data-name="Path 197" d="M77.668,63.783l-.206-.052h-.008l-3.828-.969L62.34,59.9V56.731a18.779,18.779,0,0,0,2.726-2.266A1.33,1.33,0,1,0,63.18,52.59,15.91,15.91,0,0,1,35.986,41.373V36.816a10.422,10.422,0,0,0,5.44.124A58.415,58.415,0,0,1,51.9,35.221a58.415,58.415,0,0,1,10.471,1.716,10.546,10.546,0,0,0,2.522.308,10.352,10.352,0,0,0,2.919-.428v4.557a15.847,15.847,0,0,1-1.053,5.7,1.329,1.329,0,1,0,2.482.952,18.463,18.463,0,0,0,1.152-4.952,6.817,6.817,0,0,0,3.722-11.386V26.965a22.215,22.215,0,1,0-44.43,0V31.69a6.817,6.817,0,0,0,3.727,11.386,18.579,18.579,0,0,0,8.046,13.642V59.9L33.176,62,26.34,63.727h-.006l-.2.051A16.505,16.505,0,0,0,13.678,79.793V93.421a1.328,1.328,0,0,0,1.329,1.329H88.784a1.328,1.328,0,0,0,1.329-1.329V79.8A16.5,16.5,0,0,0,77.668,63.783ZM63.006,34.355A59.217,59.217,0,0,0,51.9,32.563a59.217,59.217,0,0,0-11.109,1.792,7.738,7.738,0,0,1-6.561-1.346l-1.1-.835A30.9,30.9,0,0,1,51.9,25.347a31.03,31.03,0,0,1,18.772,6.829l-1.1.835a7.751,7.751,0,0,1-6.561,1.344Zm7.46,5.959v-4.7q.36-.228.7-.489L72.6,34.046a4.154,4.154,0,0,1-2.136,6.268ZM51.9,7.408A19.546,19.546,0,0,1,71.454,26.965v2.442A33.126,33.126,0,0,0,51.9,22.689,33.126,33.126,0,0,0,32.34,29.407V26.965A19.58,19.58,0,0,1,51.9,7.408ZM30.48,36.368A4.138,4.138,0,0,1,31.2,34.05l1.428,1.079c.228.172.466.322.7.473v4.715a4.177,4.177,0,0,1-2.848-3.949ZM51.9,59.942a18.509,18.509,0,0,0,7.785-1.7v5.372a7.785,7.785,0,1,1-15.57,0V58.225A18.456,18.456,0,0,0,51.9,59.942Zm0,14.111A10.454,10.454,0,0,0,62.34,63.611v-.973l6.623,1.678v16.62H34.831V64.317l6.623-1.679v.973A10.454,10.454,0,0,0,51.9,74.054ZM28,92.092V87.25a1.329,1.329,0,0,0-2.658,0v4.842h-9V79.8a13.844,13.844,0,0,1,9-12.974v7.612a1.329,1.329,0,1,0,2.658,0V66.051l2.344-.595,1.833-.465V82.265A1.329,1.329,0,0,0,33.5,83.595h36.79a1.329,1.329,0,0,0,1.329-1.329V64.992L75.8,66.05V92.092Zm59.461,0h-9V66.821a13.843,13.843,0,0,1,9,12.974Z" transform="translate(-13.678 -4.75)"/>
      <path id="Path_198" data-name="Path 198" d="M104.82,113.03a1.329,1.329,0,0,0,2.658,0v-6.076a1.329,1.329,0,0,0-2.658,0Z" transform="translate(-35.598 -29.011)"/>
      <path id="Path_199" data-name="Path 199" d="M30.359,101.25a1.328,1.328,0,0,0-1.329,1.329v3.038a1.329,1.329,0,1,0,2.658,0v-3.038a1.328,1.328,0,0,0-1.329-1.329Z" transform="translate(-17.37 -27.959)"/>
    </g>
  </g>
</svg>
