<svg xmlns="http://www.w3.org/2000/svg" width="133.182" height="90" viewBox="0 0 133.182 90">
  <g id="delivery-truck" transform="translate(-4.557 -24.927)">
    <path id="Path_179" data-name="Path 179" d="M6.307,77.73H82.19V90.946H6.307Z" transform="translate(0.21 6.35)" fill="#e1a705"/>
    <path id="Path_180" data-name="Path 180" d="M6.307,26.677H82.19V83.868H6.307Z" transform="translate(0.21 0.21)" fill="#fff"/>
    <path id="Path_181" data-name="Path 181" d="M74.045,35.244H108.43a5.6,5.6,0,0,1,4.987,3.049l12.771,24.952a11.2,11.2,0,0,1,1.232,5.1v27.7H74.045Z" transform="translate(8.356 1.241)" fill="#676868"/>
    <path id="Path_182" data-name="Path 182" d="M119.151,64.927,107.024,41.244H80.045V56.72L84.7,64.927Z" transform="translate(9.077 1.962)" fill="#dff6fd"/>
    <path id="Path_183" data-name="Path 183" d="M113.136,74.065h9.586v8.211h-9.586Z" transform="translate(13.057 5.909)" fill="#dff6fd"/>
    <circle id="Ellipse_3" data-name="Ellipse 3" cx="13.214" cy="13.214" r="13.214" transform="translate(17.771 90.844) rotate(-24.899)" fill="#fff"/>
    <circle id="Ellipse_4" data-name="Ellipse 4" cx="13.214" cy="13.214" r="13.214" transform="translate(89.341 91.062) rotate(-25.412)" fill="#fff"/>
    <circle id="Ellipse_5" data-name="Ellipse 5" cx="4.827" cy="4.827" r="4.827" transform="translate(30.473 92.467)" fill="#dff6fd"/>
    <circle id="Ellipse_6" data-name="Ellipse 6" cx="4.827" cy="4.827" r="4.827" transform="translate(102.169 92.467)" fill="#dff6fd"/>
    <g id="Group_377" data-name="Group 377" transform="translate(4.557 24.927)">
      <path id="Path_184" data-name="Path 184" d="M32.728,83.468a6.786,6.786,0,1,0,6.788,6.787,6.786,6.786,0,0,0-6.788-6.787Zm0,9.652A2.866,2.866,0,1,1,35.6,90.254a2.866,2.866,0,0,1-2.867,2.866Z" transform="translate(-1.985 -17.887)"/>
      <path id="Path_185" data-name="Path 185" d="M96.728,83.468a6.786,6.786,0,1,0,6.788,6.787,6.786,6.786,0,0,0-6.788-6.787Zm0,9.652A2.866,2.866,0,1,1,99.6,90.254a2.866,2.866,0,0,1-2.867,2.866Z" transform="translate(5.711 -17.887)"/>
      <path id="Path_186" data-name="Path 186" d="M6.517,61.841a1.962,1.962,0,0,0,1.96-1.96V54.839a1.96,1.96,0,0,0-3.921,0v5.041A1.962,1.962,0,0,0,6.517,61.841Z" transform="translate(-4.557 -21.566)"/>
      <path id="Path_187" data-name="Path 187" d="M136.292,63.591l-1.8-3.525A1.961,1.961,0,1,0,131,61.858l1.8,3.527a9.267,9.267,0,0,1,1.016,4.211v8.423h-7.626a1.96,1.96,0,0,0-1.96,1.96v8.211a1.96,1.96,0,0,0,1.96,1.96h7.626v5.188H122.031a15.16,15.16,0,0,0-30.07,0H84.367V38.445h32.424a3.624,3.624,0,0,1,3.241,1.982l6.2,12.111a1.96,1.96,0,1,0,3.49-1.787l-6.2-12.111a7.526,7.526,0,0,0-6.73-4.116H84.367V26.887a1.96,1.96,0,0,0-1.96-1.96H6.517a1.962,1.962,0,0,0-1.96,1.96v20.5a1.96,1.96,0,1,0,3.921,0V28.848H80.446V82.119H8.478V73.591a1.96,1.96,0,1,0-3.921,0v23.7a1.96,1.96,0,0,0,1.96,1.96H20.266a15.159,15.159,0,0,0,30.067,0H91.961a15.16,15.16,0,0,0,30.07,0h13.748a1.959,1.959,0,0,0,1.96-1.96v-27.7a13.219,13.219,0,0,0-1.447-6ZM80.446,86.04v9.3H50.334a15.136,15.136,0,0,0-4.89-9.3Zm-71.963,0H25.156a15.136,15.136,0,0,0-4.89,9.3H8.478ZM35.3,108.549A11.255,11.255,0,1,1,46.554,97.294,11.255,11.255,0,0,1,35.3,108.549Zm71.7,0a11.255,11.255,0,1,1,11.255-11.255A11.255,11.255,0,0,1,107,108.549Zm21.157-22.324V81.934h5.665v4.291Z" transform="translate(-4.557 -24.927)"/>
      <path id="Path_188" data-name="Path 188" d="M107.234,39.494H80.255a1.96,1.96,0,0,0-1.96,1.96V56.931a1.954,1.954,0,0,0,.255.968L83.21,66.1a1.957,1.957,0,0,0,1.7.994H119.36a1.96,1.96,0,0,0,1.745-2.854L108.979,40.562a1.957,1.957,0,0,0-1.744-1.068ZM86.055,63.177l-3.833-6.761V43.422h23.82l10.118,19.762Z" transform="translate(4.31 -23.175)"/>
      <path id="Path_189" data-name="Path 189" d="M21.827,52.41a1.962,1.962,0,0,0,1.96,1.96H36.716a1.96,1.96,0,0,0,0-3.921H23.787a1.96,1.96,0,0,0-1.96,1.96Z" transform="translate(-2.48 -21.858)"/>
      <path id="Path_190" data-name="Path 190" d="M44.674,70.326a1.958,1.958,0,0,0,2.137-.425L61.35,55.361a1.959,1.959,0,0,0,0-2.773L46.812,38.05a1.96,1.96,0,0,0-3.347,1.386v5.982H32.21a1.96,1.96,0,1,0,0,3.921H45.429a1.959,1.959,0,0,0,1.96-1.96v-3.21l9.8,9.8-9.807,9.806v-2.7a1.96,1.96,0,0,0-1.956-1.953H32.21a1.96,1.96,0,1,0,0,3.921H43.464v5.472a1.96,1.96,0,0,0,1.21,1.809Z" transform="translate(-1.467 -23.418)"/>
    </g>
  </g>
</svg>
