<svg xmlns="http://www.w3.org/2000/svg" width="98.776" height="90" viewBox="0 0 98.776 90">
  <g id="thumb-up" transform="translate(-5.25 -7.635)">
    <g id="Group_381" data-name="Group 381" transform="translate(6.709 9.094)">
      <path id="Path_200" data-name="Path 200" d="M94.314,42.177H73.719l1.856-24.645a8.147,8.147,0,0,0-8.148-8.147c-3.807,0-7.4,2.584-7.946,6.353C56.411,36.754,32.618,49.655,32.618,49.655V86.537c8.273,0,8.273,9.335,24.219,9.335H89.587A12.8,12.8,0,0,0,102.36,83.953l4.727-28.082A12.8,12.8,0,0,0,94.314,42.177Z" transform="translate(-11.266 -9.385)" fill="#fff"/>
      <rect id="Rectangle_93" data-name="Rectangle 93" width="21.352" height="57.685" rx="8.311" transform="translate(0 29.398)" fill="#676868"/>
    </g>
    <g id="Group_382" data-name="Group 382" transform="translate(5.25 7.635)">
      <path id="Path_201" data-name="Path 201" d="M100.183,44.958a14.119,14.119,0,0,0-10.426-4.531H83.321a1.459,1.459,0,0,0,0,2.917h6.436A11.345,11.345,0,0,1,101.079,55.4l-4.715,28.01c-.008.046-.013.093-.017.141A11.38,11.38,0,0,1,85.031,94.114H52.28c-8.752,0-12.327-2.9-15.481-5.468-2.131-1.731-4.159-3.379-7.28-3.774V50.208a71.554,71.554,0,0,0,11.811-8.852c8.532-7.885,13.732-16.772,15.036-25.7a6.373,6.373,0,0,1,6.5-5.105,6.7,6.7,0,0,1,6.691,6.639L67.708,41.779a1.459,1.459,0,0,0,1.454,1.569h7.212a1.459,1.459,0,1,0,0-2.917H70.735l1.736-23.079v-.11a9.617,9.617,0,0,0-9.6-9.606,9.3,9.3,0,0,0-9.39,7.6C51.09,31.6,35.335,43.059,29.52,46.775V45.42a8.4,8.4,0,0,0-8.386-8.387h-7.5A8.4,8.4,0,0,0,5.25,45.42V58.056a1.459,1.459,0,1,0,2.917,0V45.42a5.475,5.475,0,0,1,5.469-5.469h7.5a5.475,5.475,0,0,1,5.469,5.469V89.249a5.474,5.474,0,0,1-5.469,5.469h-7.5a5.474,5.474,0,0,1-5.469-5.469V77.771a1.459,1.459,0,1,0-2.917,0V89.249a8.4,8.4,0,0,0,8.386,8.386h7.5a8.4,8.4,0,0,0,8.386-8.386V87.838c2.09.374,3.556,1.543,5.44,3.073,3.356,2.726,7.533,6.12,17.32,6.12H85.034A14.307,14.307,0,0,0,99.257,83.826l4.714-28.013a1.127,1.127,0,0,0,.017-.14,14.118,14.118,0,0,0-3.8-10.715Z" transform="translate(-5.25 -7.635)"/>
      <path id="Path_202" data-name="Path 202" d="M6.709,82.724a1.459,1.459,0,0,0,1.459-1.459V78.229a1.459,1.459,0,1,0-2.917,0v3.037A1.459,1.459,0,0,0,6.709,82.724Z" transform="translate(-5.25 -19.146)"/>
    </g>
    <g id="Group_383" data-name="Group 383" transform="translate(48.638 52.635)">
      <path id="Path_203" data-name="Path 203" d="M0,0H30V30H0Z" fill="none"/>
      <path id="Path_204" data-name="Path 204" d="M15,28A13,13,0,1,1,28,15,13,13,0,0,1,15,28Zm-1.3-7.8,9.191-9.192L21.057,9.169,13.7,16.524l-3.678-3.678L8.188,14.684Z" transform="translate(0 0)" fill="#e1a705"/>
    </g>
  </g>
</svg>
