<svg width="375" height="402" viewBox="0 0 375 402" fill="none" xmlns="http://www.w3.org/2000/svg">
<style>
    #char , #translate {
        transform-origin: center;
        transform-box: fill-box;
    }
    #char{
        animation: translateX 3s linear infinite;
    }
    #translate{
        animation: translateY 3s linear infinite;
    }
    @keyframes translateX {

        0%,
        100% {
            transform: translateX(2px);
        }

        50% {
            transform: translateX(-2px);
        }
    }

    @keyframes translateY {

        0%,
        100% {
            transform: translateY(2px);
        }

        50% {
            transform: translateY(-2px);
        }
    }
</style>
<g id="Group 173 1" clip-path="url(#clip0_224:321)">
<g id="Group 173">
<g id="char">
<g id="Group 5">
<g id="Group 3">
<path id="Path 15" d="M275.516 141.384C289.238 140.125 304.316 138.198 304.224 138.21C309.978 137.358 313.505 134.366 314.556 130.717C318.696 114.225 322.433 99.304 326.408 81.017C327.698 75.079 334.061 71.217 340.618 72.381C347.175 73.545 351.446 79.311 350.155 85.248C350.029 85.8116 349.858 86.3643 349.645 86.901C346.388 94.953 343.226 103.03 340.16 111.133C329.389 139.182 327.379 146.751 320.376 149.423C314.661 151.605 295.108 150.939 275.428 150.763C274.579 146.82 275.162 145.413 275.516 141.384Z" fill="#F2D9D2"/>
</g>
<g id="Group 4">
<path id="Path 16" d="M263.231 143.293L256.491 140.204C253.926 139.028 254.583 137.769 256.117 137.904C259.38 138.204 262.54 139.206 265.38 140.84C262.865 138.737 260.451 136.52 258.139 134.189C257.614 133.659 256.878 133.174 257.304 132.246C257.96 131.861 259.526 132.432 260.549 132.893C264.159 134.519 267.376 136.907 269.977 139.893C269.554 137.542 267.977 135.559 267.318 133.261C267.192 132.944 267.192 132.591 267.318 132.274C267.432 132.105 267.597 131.977 267.789 131.908C267.981 131.838 268.189 131.832 268.385 131.889C268.774 132.012 269.128 132.225 269.42 132.51C272.47 135.113 274.814 138.443 276.235 142.192L275.429 150.755C269.609 151.404 262.085 150.166 256.416 148.693C255.189 148.373 255.128 147.684 255.438 147.373C256.171 146.643 262.683 146.384 263.703 146.35C261.742 146.296 255.179 145.55 254.37 143.777C253.32 141.482 260.804 143.442 263.231 143.293Z" fill="#F2D9D2"/>
</g>
</g>
<g id="Group 10">
<g id="Group 6">
<path id="Path 17" d="M22.106 90.696C25.362 98.7493 28.5237 106.827 31.591 114.928L40.864 139.776C43.136 145.111 47.622 149.857 54.273 152.987C63.025 157.087 67.956 153.407 101.073 157.871C105.099 158.414 106.737 157.491 107.337 153.845C107.937 150.199 105.158 146.804 101.132 146.261C101.047 146.25 100.932 146.236 100.847 146.228C86.335 144.79 67.435 141.994 67.531 142.008L66.877 141.908C62.727 141.278 58.388 138.638 57.199 134.508C53.059 118.016 49.322 103.095 45.347 84.808C44.057 78.87 37.694 75.008 31.137 76.173C24.58 77.338 20.309 83.102 21.6 89.04C21.7248 89.6044 21.894 90.1582 22.106 90.696V90.696Z" fill="#F2D9D2"/>
</g>
<g id="Group 7">
<path id="Path 18" d="M119.699 158.842V158.876C119.699 159.506 118.819 159.806 118.144 159.806C117.063 159.594 116.067 159.073 115.277 158.306C115.284 158.386 115.287 158.466 115.287 158.545C115.316 158.764 115.299 158.986 115.237 159.198C115.174 159.41 115.068 159.607 114.925 159.775C114.782 159.943 114.606 160.08 114.407 160.175C114.208 160.271 113.991 160.324 113.77 160.331H113.658C112.837 160.291 112.059 159.948 111.476 159.368C111.409 159.832 111.17 160.254 110.807 160.551C110.443 160.847 109.981 160.996 109.513 160.968C108.904 160.879 108.331 160.625 107.857 160.233C107.689 160.986 107.041 161.455 105.892 161.455C102.902 161.455 101.678 158.732 101.07 157.866L100.844 146.223C109.038 146.852 119.117 150.562 119.699 158.842Z" fill="#E88C74"/>
</g>
<g id="Group 8">
<path id="Path 19" d="M109.048 147.868C109.048 147.868 116.967 149.297 119.02 151.977H113.846L109.048 147.868Z" fill="#E88C74"/>
</g>
<g id="Group 9">
<path id="Path 20" d="M46.022 84.012C44.634 77.627 37.794 73.469 30.743 74.726C23.692 75.983 19.1 82.177 20.487 88.561C20.6233 89.1668 20.8068 89.7609 21.036 90.338C24.538 98.998 27.938 107.683 31.236 116.394V116.4C38.372 116.242 46.442 115.309 52.472 112.061C50.328 103.184 48.209 94.073 46.022 84.012Z" fill="#4989D4"/>
</g>
</g>
<g id="Group 20">
<g id="Group 18">
<g id="Group 11">
<path id="Path 21" d="M88.769 392.748L53.083 390.292C52.923 391.478 52.8701 392.677 52.925 393.873C52.9827 394.96 53.3864 395.999 54.0771 396.84C54.7678 397.681 55.7093 398.278 56.764 398.546C60.8566 399.646 65.068 400.242 69.305 400.322C76.063 400.322 84.23 400.096 88.214 397.986C88.5523 397.807 88.8347 397.539 89.0297 397.209C89.2247 396.88 89.3248 396.504 89.319 396.121C89.334 394.973 89.1478 393.832 88.769 392.748V392.748Z" fill="#6F7171"/>
</g>
<g id="Group 12">
<path id="Path 22" d="M89.169 393.948V393.985C89.285 397.276 70.92 397.285 67.742 397.285C60.114 397.285 53.313 396.847 53.07 389.928C52.963 386.888 54.211 383.483 55.133 381.019L55.756 381.056L70.244 382.008L71.103 382.07C71.37 389.632 88.718 388.218 89.169 393.948Z" fill="#322B42"/>
</g>
<g id="Group 13">
<path id="Path 23" d="M67.174 382.012C66.833 385.602 65.959 388.318 61.952 388.33H61.898C57.988 388.33 55.898 385.89 55.749 381.648C55.742 381.448 55.749 381.261 55.749 381.06L67.174 382.012Z" fill="#F2D9D2"/>
</g>
<g id="Group 15">
<g id="Group 14">
<path id="Path 24" d="M72.751 390.966C72.7055 390.97 72.6597 390.966 72.6161 390.952C72.5725 390.939 72.532 390.917 72.497 390.887C72.462 390.858 72.4332 390.822 72.4122 390.781C72.3913 390.741 72.3786 390.697 72.375 390.651L72.369 390.523C72.3629 389.639 72.61 388.772 73.081 388.025C73.552 387.277 74.2273 386.68 75.027 386.304C75.075 386.286 75.1261 386.278 75.1774 386.28C75.2286 386.282 75.2789 386.294 75.3255 386.315C75.372 386.337 75.4139 386.367 75.4488 386.405C75.4836 386.442 75.5107 386.486 75.5285 386.534C75.5463 386.583 75.5544 386.634 75.5525 386.685C75.5505 386.736 75.5385 386.786 75.5171 386.833C75.4957 386.88 75.4653 386.921 75.4277 386.956C75.3901 386.991 75.346 387.018 75.298 387.036C74.6508 387.354 74.1061 387.847 73.7259 388.459C73.3457 389.072 73.1455 389.779 73.148 390.5C73.1564 390.608 73.1242 390.716 73.0576 390.802C72.9911 390.888 72.895 390.946 72.788 390.965L72.751 390.966Z" fill="#6F7171"/>
</g>
</g>
<g id="Group 17">
<g id="Group 16">
<path id="Path 25" d="M75.923 392.084C75.8317 392.092 75.7409 392.064 75.6704 392.005C75.6 391.946 75.5556 391.862 75.547 391.771L75.54 391.64C75.5342 390.756 75.7815 389.889 76.2527 389.141C76.7239 388.393 77.3992 387.795 78.199 387.419C78.2961 387.383 78.4034 387.387 78.4975 387.43C78.5915 387.474 78.6646 387.552 78.7005 387.649C78.7364 387.747 78.7323 387.854 78.6891 387.948C78.6459 388.042 78.5671 388.115 78.47 388.151C77.8227 388.469 77.2779 388.962 76.8975 389.575C76.5172 390.188 76.3167 390.895 76.319 391.616C76.3295 391.724 76.299 391.832 76.2336 391.918C76.1683 392.005 76.0727 392.064 75.966 392.083L75.923 392.084Z" fill="#6F7171"/>
</g>
</g>
</g>
<g id="Group 19">
<path id="Path 26" d="M2.30899 194.602C2.30899 194.602 10.895 215.275 20.279 229.522C29.663 243.769 34.629 267.514 34.893 276.734C35.157 285.954 46.247 364.746 54.113 384.576C60.7529 385.918 67.5941 385.918 74.234 384.576C74.234 384.576 64.377 216.946 61.327 194.879L48.317 183.707L2.30899 194.602Z" fill="#6F7171"/>
</g>
</g>
<g id="Group 21">
<path id="Path 27" d="M40.799 66.782C40.2728 69.3195 40.0779 71.9144 40.219 74.502C33.076 71.474 28.919 67.958 22.808 63.278C24.729 56.634 25.599 49.789 26.76 42.957C27.216 43.72 27.699 44.471 28.197 45.197C32.097 50.865 37.386 55.645 42.887 60.175C42.016 61.239 41.284 63.966 40.799 66.782Z" fill="#F2D9D2"/>
</g>
<g id="Group 22">
<path id="Path 28" d="M42.887 60.175C42.017 61.239 41.287 63.965 40.799 66.781C33.931 61.901 30.504 53.981 28.044 46.135C28.099 45.822 28.144 45.51 28.196 45.197L28.735 41.897C32.689 48.563 36.682 55.058 42.887 60.175Z" fill="#ECC8BF"/>
</g>
<g id="Group 23">
<path id="Path 29" d="M17.936 25.866C18.6923 26.1036 19.4824 26.2157 20.275 26.198C22.6173 26.0716 24.9389 25.691 27.199 25.063C27.4652 26.4256 27.5918 27.8117 27.577 29.2C27.577 34.308 26.219 40.1 25.577 44.018C21.483 40.114 17.288 35.841 17.936 25.866Z" fill="black"/>
</g>
<g id="Group 24">
<path id="Path 30" d="M59.846 39.686C61.54 19.586 56.477 7.22299 41.227 7.78599C22.812 8.46899 19.4 20.245 20.842 29.663C20.778 29.663 20.714 29.663 20.649 29.663C17.249 29.663 15.895 32.479 15.731 35.263C15.479 39.558 17.507 43.568 23.431 43.88C25.653 51.46 34.701 61.172 44.077 61.624C52.377 62.024 56.44 55.707 58.39 48.457C59.7554 48.5704 61.1302 48.4518 62.456 48.106C62.6499 48.0721 62.8333 47.9938 62.992 47.8774C63.1508 47.7609 63.2805 47.6094 63.371 47.4347C63.4616 47.2599 63.5106 47.0666 63.5142 46.8698C63.5179 46.673 63.476 46.478 63.392 46.3C62.589 44.712 61.199 42.027 59.846 39.686Z" fill="#F2D9D2"/>
</g>
<g id="Group 25">
<path id="Path 31" d="M24.399 28.863C28.9321 30.6651 33.7668 31.5879 38.645 31.582C43.3762 31.5924 48.0672 30.7138 52.474 28.992C55.165 30.712 58.117 32.218 61.236 32.218C61.6752 32.2187 62.114 32.1887 62.549 32.128C60.81 21.528 46.486 16.547 36.592 16.547C30.086 16.547 22.192 17.596 22.192 24.097C22.2176 25.1212 22.4663 26.1276 22.9207 27.0458C23.3751 27.9641 24.0243 28.7723 24.823 29.414" fill="black"/>
</g>
<g id="Group 26">
<path id="Path 32" d="M23.158 35.445C22.608 35.045 20.68 32.845 19.774 36.24C19.688 36.518 19.552 36.731 19.633 36.999C19.142 36.728 18.804 34.647 20.207 33.751C20.541 33.5618 20.9235 33.4753 21.3064 33.5024C21.6894 33.5294 22.0558 33.6688 22.36 33.903C22.7914 34.313 23.0725 34.8561 23.158 35.445V35.445Z" fill="#BD725E"/>
</g>
<g id="Group 27">
<path id="Path 33" d="M21.072 36.678C22.963 37.357 23.313 39.669 21.839 40.278C22.038 38.722 21.337 38.02 21.072 36.678Z" fill="#BD725E"/>
</g>
<g id="Group 44">
<g id="Group 35">
<g id="Group 28">
<path id="Path 34" d="M35.963 393.661L0.517988 391.205C0.243471 392.381 0.073472 393.579 0.00998442 394.785C-0.0602349 395.836 0.239331 396.879 0.856794 397.732C1.47426 398.585 2.37074 399.196 3.39099 399.458C7.42253 400.565 11.5769 401.161 15.757 401.234C22.515 401.234 30.704 401.008 34.895 398.899C35.2501 398.723 35.5545 398.459 35.7796 398.133C36.0048 397.807 36.1432 397.428 36.182 397.034C36.3117 395.906 36.2375 394.763 35.963 393.661Z" fill="#423C52"/>
</g>
<g id="Group 29">
<path id="Path 35" d="M36.25 394.859V394.896C36.043 398.187 17.677 398.196 14.499 398.196C6.871 398.196 0.114001 397.758 0.547001 390.838C0.738001 387.798 2.32 384.395 3.484 381.93L4.103 381.967L18.503 382.918L19.355 382.98C18.874 390.542 36.361 389.128 36.25 394.859Z" fill="#322B42"/>
</g>
<g id="Group 30">
<path id="Path 36" d="M15.421 382.922C14.728 386.513 13.587 389.229 9.57898 389.241H9.52498C5.61598 389.241 3.76499 386.801 4.03099 382.559C4.04299 382.359 4.06599 382.171 4.08999 381.971L15.421 382.922Z" fill="#F2D9D2"/>
</g>
<g id="Group 32">
<g id="Group 31">
<path id="Path 37" d="M20.171 391.925H20.161C20.0579 391.922 19.9603 391.878 19.8894 391.803C19.8184 391.728 19.7798 391.628 19.782 391.525L19.788 391.405C19.8831 390.502 20.2139 389.639 20.7472 388.904C21.2806 388.169 21.9978 387.587 22.827 387.216C22.8757 387.196 22.9279 387.187 22.9805 387.188C23.033 387.189 23.0848 387.2 23.1327 387.222C23.1807 387.243 23.2237 387.274 23.2594 387.313C23.295 387.352 23.3225 387.397 23.3402 387.447C23.3579 387.496 23.3653 387.549 23.3622 387.601C23.359 387.654 23.3453 387.705 23.3219 387.752C23.2984 387.799 23.2657 387.841 23.2257 387.875C23.1856 387.909 23.1392 387.934 23.089 387.95C22.4029 388.267 21.8103 388.756 21.3683 389.369C20.9264 389.982 20.65 390.699 20.566 391.45V391.55C20.5621 391.652 20.5186 391.748 20.4448 391.818C20.371 391.888 20.2727 391.926 20.171 391.925V391.925Z" fill="white"/>
</g>
</g>
<g id="Group 34">
<g id="Group 33">
<path id="Path 38" d="M23.234 392.995C23.1853 392.999 23.1363 392.993 23.09 392.978C23.0437 392.962 23.0011 392.937 22.9649 392.905C22.9286 392.872 22.8996 392.832 22.8794 392.788C22.8593 392.743 22.8486 392.695 22.848 392.646L22.854 392.514C22.9503 391.612 23.2816 390.75 23.8149 390.016C24.3482 389.282 25.0647 388.701 25.893 388.33C25.9417 388.31 25.9939 388.301 26.0465 388.302C26.099 388.303 26.1508 388.314 26.1987 388.336C26.2466 388.358 26.2897 388.388 26.3254 388.427C26.361 388.466 26.3885 388.511 26.4062 388.561C26.4238 388.61 26.4313 388.663 26.4282 388.715C26.425 388.768 26.4113 388.819 26.3878 388.866C26.3644 388.913 26.3317 388.955 26.2917 388.989C26.2516 389.023 26.2052 389.048 26.155 389.064C25.4693 389.382 24.8769 389.871 24.435 390.484C23.9931 391.097 23.7166 391.813 23.632 392.564C23.6318 392.673 23.5908 392.777 23.5171 392.857C23.4434 392.937 23.3423 392.986 23.234 392.995Z" fill="white"/>
</g>
</g>
</g>
<g id="Group 36">
<path id="Path 39" d="M2.30999 194.602C2.30999 194.602 -0.16901 220.296 7.86399 229.465C12.274 243.793 11.626 270.4 9.27299 291.62C8.241 300.937 -2.05001 364.742 0.65699 384.576C7.26932 386.17 14.1657 386.17 20.778 384.576C20.778 384.576 58.611 216.948 61.301 194.876L51.152 183.704L2.30999 194.602Z" fill="#676868"/>
</g>
<g id="Group 43" opacity="0.3">
<g id="Group 38" opacity="0.3">
<g id="Group 37" opacity="0.3">
<path id="Path 40" opacity="0.3" d="M27.242 224.907C27.16 224.908 27.0797 224.883 27.0125 224.836C26.9454 224.789 26.8948 224.722 26.868 224.644C26.8412 224.567 26.8395 224.483 26.8632 224.404C26.8869 224.326 26.9348 224.257 27 224.207C32.206 220.107 36.876 214.407 41.276 206.775C41.3295 206.689 41.414 206.628 41.5119 206.604C41.6097 206.579 41.7133 206.593 41.8008 206.644C41.8882 206.694 41.9529 206.776 41.9811 206.873C42.0093 206.97 41.9988 207.074 41.952 207.163C37.501 214.885 32.768 220.663 27.483 224.819C27.4149 224.875 27.33 224.906 27.242 224.907V224.907Z" fill="#A7B294"/>
</g>
</g>
<g id="Group 40" opacity="0.3">
<g id="Group 39" opacity="0.3">
<path id="Path 41" opacity="0.3" d="M8.40599 221.855C8.32301 221.856 8.24203 221.829 8.1749 221.781C8.10777 221.732 8.058 221.663 8.03287 221.584C8.00773 221.505 8.00855 221.42 8.0352 221.341C8.06185 221.263 8.11293 221.195 8.18098 221.147C9.32583 220.296 10.2677 219.201 10.9388 217.942C11.6099 216.683 11.9935 215.291 12.062 213.866C12.1402 211.328 11.7329 208.798 10.862 206.412C8.76489 206.696 6.64852 206.812 4.53299 206.759C4.42955 206.755 4.33183 206.711 4.26131 206.635C4.1908 206.559 4.15328 206.458 4.15699 206.355C4.1607 206.252 4.20535 206.154 4.28111 206.083C4.35688 206.013 4.45755 205.975 4.56099 205.979C6.74112 206.035 8.92208 205.908 11.081 205.599C11.1703 205.588 11.2607 205.608 11.337 205.656C11.4133 205.703 11.4708 205.776 11.5 205.861C12.467 208.433 12.9219 211.169 12.839 213.916C12.7632 215.457 12.3463 216.962 11.6185 218.323C10.8906 219.683 9.86993 220.866 8.62999 221.784C8.56446 221.83 8.4862 221.855 8.40599 221.855V221.855Z" fill="#A7B294"/>
</g>
</g>
<g id="Group 42" opacity="0.3">
<g id="Group 41" opacity="0.3">
<path id="Path 42" opacity="0.3" d="M6.55199 385.971C6.49539 385.971 6.43949 385.958 6.38799 385.935C6.29426 385.891 6.22165 385.812 6.18604 385.715C6.15043 385.618 6.15473 385.511 6.19799 385.417C13.425 369.853 34.211 265.689 40.409 234.135L40.686 232.735C40.7094 232.637 40.7702 232.551 40.8554 232.497C40.9407 232.442 41.0438 232.423 41.1429 232.443C41.2421 232.463 41.3296 232.521 41.3869 232.604C41.4441 232.688 41.4668 232.79 41.45 232.89L41.175 234.29C34.975 265.867 14.169 370.108 6.90499 385.751C6.87281 385.817 6.82261 385.873 6.76017 385.912C6.69772 385.951 6.62557 385.971 6.55199 385.971V385.971Z" fill="#A7B294"/>
</g>
</g>
</g>
</g>
<g id="Group 45">
<path id="Path 43" d="M41.806 71.375C48.3309 87.0387 53.2465 103.325 56.477 119.983C61.121 144.475 61.316 173.149 61.316 194.883C61.316 194.883 34.996 206.898 2.30899 194.606C2.30899 194.606 7.74999 119.706 8.08599 103.106C8.42199 86.506 13.057 65.465 23.261 61.64C27.399 66.324 32.544 69.135 41.806 71.375Z" fill="#3F4040"/>
</g>
<g id="Group 46">
<path id="Path 44" d="M54.176 51.762C53.3594 52.6427 52.6774 53.6391 52.152 54.719C51.0939 54.316 50.1363 53.6872 49.346 52.8763C48.5557 52.0655 47.9517 51.0921 47.576 50.024C49.6675 50.9565 51.8965 51.5435 54.176 51.762V51.762Z" fill="black"/>
</g>
<g id="Group 47">
<path id="Path 45" d="M48.55 32.132C48.8413 31.5569 49.2784 31.0684 49.8177 30.7151C50.3569 30.3619 50.9794 30.1563 51.623 30.119C52.6188 29.9146 53.6549 30.0723 54.5447 30.5638C55.4346 31.0553 56.1198 31.8483 56.477 32.8C54.7216 31.7677 52.6786 31.3329 50.655 31.561C49.9292 31.6475 49.22 31.8399 48.55 32.132V32.132Z" fill="black"/>
</g>
<g id="Group 48">
<path id="Path 46" d="M51.639 36.129C51.5884 36.463 51.6712 36.8036 51.8695 37.0771C52.0679 37.3506 52.3658 37.5352 52.699 37.591C53.0371 37.5597 53.3499 37.3985 53.5717 37.1413C53.7934 36.8842 53.9068 36.551 53.888 36.212C53.9386 35.8779 53.8558 35.5374 53.6574 35.2639C53.4591 34.9904 53.1612 34.8058 52.828 34.75C52.4899 34.7813 52.1771 34.9425 51.9553 35.1997C51.7336 35.4568 51.6202 35.79 51.639 36.129Z" fill="black"/>
</g>
<g id="Group 49">
<path id="Path 47" d="M41.806 71.375L34.781 77.855C34.781 77.855 22.833 68.942 23.239 61.733C27.645 65.714 31.855 69.089 41.806 71.375Z" fill="white"/>
</g>
<g id="Group 50">
<path id="Path 48" d="M20.238 26.218C21.028 26.067 22.633 25.764 25.838 25.161C26.438 25.048 27.074 24.988 27.705 24.917C27.8205 25.4629 28.0036 25.9923 28.25 26.493C27.6097 27.8303 26.5977 28.9549 25.335 29.732C24.6595 32.9326 24.2911 36.1904 24.235 39.461C22.235 35.361 20.235 29.476 20.235 26.255L20.238 26.218Z" fill="black"/>
</g>
<g id="Group 51">
<path id="Path 49" d="M61.226 28.385C33.185 29.773 20.418 27.202 20.418 27.202L17.826 27.041C17.826 27.041 15.537 1.285 41.161 2.085C50.561 2.377 55.482 7.574 58.214 12.598C59.4765 14.9858 60.3482 17.5604 60.796 20.224C61.2814 22.9155 61.4259 25.6574 61.226 28.385V28.385Z" fill="#676868"/>
</g>
<g id="translate">
<g id="Group 52">
<path id="Rectangle 27" d="M260.606 0.859009H116.626C109.243 0.859009 103.257 6.84451 103.257 14.228V180.868C103.257 188.252 109.243 194.237 116.626 194.237H260.606C267.989 194.237 273.975 188.252 273.975 180.868V14.228C273.975 6.84451 267.989 0.859009 260.606 0.859009Z" fill="#E1A705"/>
</g>
<g id="Group 53">
<path id="Rectangle 28" d="M260.606 12.568H116.626C109.243 12.568 103.257 18.5535 103.257 25.937V192.577C103.257 199.961 109.243 205.946 116.626 205.946H260.606C267.989 205.946 273.975 199.961 273.975 192.577V25.937C273.975 18.5535 267.989 12.568 260.606 12.568Z" fill="#EEB514"/>
</g>
<g id="Group 54">
<path id="Rectangle 29" d="M277.53 145.291H102.639V221.084H277.53V145.291Z" fill="#FFBC00"/>
</g>
<g id="Group 55">
<path id="Rectangle 30" d="M83.357 87.371H100.45C101.779 87.3709 103.096 87.6326 104.324 88.1413C105.552 88.65 106.669 89.3956 107.609 90.3356C108.549 91.2756 109.295 92.3916 109.803 93.6199C110.312 94.8481 110.574 96.1645 110.574 97.494V221.084H78.334C76.9814 221.084 75.6842 220.547 74.7277 219.59C73.7713 218.634 73.234 217.337 73.234 215.984V97.494C73.234 94.8092 74.3005 92.2344 76.199 90.336C78.0974 88.4375 80.6722 87.371 83.357 87.371V87.371Z" fill="#FFBC00"/>
</g>
<g id="Group 56">
<path id="Rectangle 31" d="M276.431 87.371H293.524C294.853 87.3709 296.17 87.6326 297.398 88.1413C298.627 88.65 299.743 89.3956 300.683 90.3356C301.623 91.2756 302.369 92.3916 302.877 93.6199C303.386 94.8481 303.648 96.1645 303.648 97.494V215.98C303.648 217.333 303.111 218.63 302.154 219.586C301.198 220.543 299.901 221.08 298.548 221.08H266.308V97.494C266.308 94.8092 267.375 92.2344 269.273 90.336C271.171 88.4375 273.746 87.371 276.431 87.371V87.371Z" fill="#FFBC00"/>
</g>
<g id="Group 57">
<path id="Rectangle 32" d="M121.104 114.893H255.773C258.566 114.893 261.245 116.003 263.22 117.977C265.194 119.952 266.304 122.631 266.304 125.424V145.293H110.573V125.424C110.573 122.631 111.683 119.952 113.657 117.977C115.632 116.003 118.311 114.893 121.104 114.893V114.893Z" fill="#E1A705"/>
</g>
<g id="Group 104">
<g id="Group 80">
<g id="Group 68">
<g id="Group 59">
<g id="Group 58">
<path id="Path 50" d="M149.97 40.311C148.888 40.3103 147.84 39.9345 147.004 39.2477C146.169 38.5609 145.597 37.6055 145.386 36.5444C145.176 35.4833 145.34 34.382 145.851 33.4283C146.361 32.4746 147.187 31.7273 148.186 31.3139C149.186 30.9005 150.298 30.8465 151.333 31.1611C152.368 31.4757 153.262 32.1394 153.862 33.0392C154.463 33.939 154.733 35.0191 154.626 36.0957C154.52 37.1722 154.043 38.1784 153.278 38.943C152.844 39.3776 152.328 39.7223 151.76 39.957C151.193 40.1918 150.584 40.3121 149.97 40.311V40.311ZM149.97 33.033C149.369 33.0335 148.786 33.2425 148.321 33.6244C147.857 34.0063 147.539 34.5375 147.422 35.1275C147.305 35.7174 147.396 36.3297 147.68 36.86C147.964 37.3903 148.423 37.8058 148.978 38.0356C149.534 38.2655 150.152 38.2956 150.728 38.1207C151.303 37.9458 151.8 37.5769 152.134 37.0766C152.468 36.5764 152.619 35.9758 152.559 35.3773C152.5 34.7787 152.235 34.2192 151.81 33.794C151.569 33.5522 151.282 33.3605 150.966 33.2299C150.65 33.0993 150.312 33.0324 149.97 33.033V33.033Z" fill="white"/>
</g>
</g>
<g id="Group 61">
<g id="Group 60">
<path id="Rectangle 33" d="M143.265 27.4578L141.798 28.925L144.203 31.3299L145.67 29.8626L143.265 27.4578Z" fill="white"/>
</g>
</g>
<g id="Group 63">
<g id="Group 62">
<path id="Rectangle 34" d="M156.684 27.4582L154.279 29.863L155.746 31.3303L158.151 28.9254L156.684 27.4582Z" fill="white"/>
</g>
</g>
<g id="Group 65">
<g id="Group 64">
<path id="Rectangle 35" d="M155.746 39.9388L154.279 41.406L156.684 43.8109L158.151 42.3436L155.746 39.9388Z" fill="white"/>
</g>
</g>
<g id="Group 67">
<g id="Group 66">
<path id="Rectangle 36" d="M144.203 39.9392L141.798 42.344L143.265 43.8113L145.67 41.4064L144.203 39.9392Z" fill="white"/>
</g>
</g>
</g>
<g id="Group 79">
<g id="Group 70">
<g id="Group 69">
<path id="Path 51" d="M229.754 40.311C228.672 40.3105 227.624 39.9349 226.788 39.2482C225.952 38.5616 225.38 37.6063 225.17 36.5451C224.959 35.484 225.123 34.3827 225.633 33.4289C226.144 32.475 226.969 31.7277 227.969 31.3141C228.968 30.9006 230.08 30.8465 231.116 31.161C232.151 31.4755 233.045 32.1392 233.645 33.039C234.246 33.9388 234.516 35.019 234.409 36.0955C234.303 37.1721 233.826 38.1784 233.061 38.943C232.627 39.3777 232.112 39.7224 231.544 39.9571C230.977 40.1919 230.368 40.3122 229.754 40.311ZM229.754 33.033C229.153 33.0335 228.57 33.2425 228.105 33.6244C227.64 34.0063 227.323 34.5375 227.206 35.1275C227.089 35.7175 227.18 36.3297 227.464 36.86C227.748 37.3903 228.207 37.8058 228.762 38.0356C229.318 38.2655 229.936 38.2956 230.512 38.1207C231.087 37.9458 231.584 37.5769 231.918 37.0766C232.252 36.5764 232.403 35.9758 232.343 35.3773C232.284 34.7787 232.019 34.2192 231.594 33.794C231.352 33.5525 231.065 33.361 230.75 33.2304C230.434 33.0998 230.096 33.0327 229.754 33.033Z" fill="white"/>
</g>
</g>
<g id="Group 72">
<g id="Group 71">
<path id="Rectangle 37" d="M236.462 27.4582L234.057 29.863L235.524 31.3303L237.929 28.9254L236.462 27.4582Z" fill="white"/>
</g>
</g>
<g id="Group 74">
<g id="Group 73">
<path id="Rectangle 38" d="M223.043 27.4578L221.576 28.925L223.981 31.3299L225.448 29.8626L223.043 27.4578Z" fill="white"/>
</g>
</g>
<g id="Group 76">
<g id="Group 75">
<path id="Rectangle 39" d="M223.981 39.9392L221.576 42.344L223.043 43.8113L225.448 41.4064L223.981 39.9392Z" fill="white"/>
</g>
</g>
<g id="Group 78">
<g id="Group 77">
<path id="Rectangle 40" d="M235.524 39.9386L234.057 41.406L236.462 43.8106L237.929 42.3432L235.524 39.9386Z" fill="white"/>
</g>
</g>
</g>
</g>
<g id="Group 103">
<g id="Group 91">
<g id="Group 82">
<g id="Group 81">
<path id="Path 52" d="M149.97 92.681C148.888 92.6803 147.84 92.3045 147.004 91.6177C146.169 90.9309 145.597 89.9755 145.386 88.9144C145.176 87.8533 145.34 86.752 145.851 85.7983C146.361 84.8445 147.187 84.0973 148.186 83.6839C149.186 83.2705 150.298 83.2165 151.333 83.5311C152.368 83.8457 153.262 84.5094 153.862 85.4092C154.463 86.309 154.733 87.3891 154.626 88.4656C154.52 89.5422 154.043 90.5484 153.278 91.313C152.844 91.7476 152.328 92.0922 151.76 92.327C151.193 92.5618 150.584 92.6821 149.97 92.681V92.681ZM149.97 85.403C149.369 85.4035 148.786 85.6125 148.321 85.9944C147.857 86.3763 147.539 86.9075 147.422 87.4974C147.305 88.0874 147.396 88.6997 147.68 89.23C147.964 89.7603 148.423 90.1757 148.978 90.4056C149.534 90.6355 150.152 90.6656 150.728 90.4907C151.303 90.3158 151.8 89.9468 152.134 89.4466C152.468 88.9463 152.619 88.3458 152.559 87.7472C152.5 87.1487 152.235 86.5892 151.81 86.164C151.569 85.922 151.282 85.7302 150.966 85.5996C150.65 85.469 150.312 85.4022 149.97 85.403V85.403Z" fill="white"/>
</g>
</g>
<g id="Group 84">
<g id="Group 83">
<path id="Rectangle 41" d="M143.265 79.8278L141.798 81.295L144.203 83.6999L145.67 82.2326L143.265 79.8278Z" fill="white"/>
</g>
</g>
<g id="Group 86">
<g id="Group 85">
<path id="Rectangle 42" d="M156.684 79.8281L154.279 82.233L155.746 83.7003L158.151 81.2954L156.684 79.8281Z" fill="white"/>
</g>
</g>
<g id="Group 88">
<g id="Group 87">
<path id="Rectangle 43" d="M155.746 92.3088L154.279 93.776L156.684 96.1809L158.151 94.7136L155.746 92.3088Z" fill="white"/>
</g>
</g>
<g id="Group 90">
<g id="Group 89">
<path id="Rectangle 44" d="M144.203 92.3091L141.798 94.714L143.265 96.1813L145.67 93.7764L144.203 92.3091Z" fill="white"/>
</g>
</g>
</g>
<g id="Group 102">
<g id="Group 93">
<g id="Group 92">
<path id="Path 53" d="M229.754 92.681C228.672 92.6805 227.624 92.3049 226.788 91.6182C225.952 90.9316 225.38 89.9763 225.17 88.9151C224.959 87.854 225.123 86.7527 225.633 85.7988C226.144 84.845 226.969 84.0976 227.969 83.6841C228.968 83.2706 230.08 83.2165 231.116 83.531C232.151 83.8455 233.045 84.5092 233.645 85.409C234.246 86.3088 234.516 87.389 234.409 88.4655C234.303 89.5421 233.826 90.5484 233.061 91.313C232.627 91.7477 232.112 92.0924 231.544 92.3271C230.977 92.5619 230.368 92.6822 229.754 92.681V92.681ZM229.754 85.403C229.153 85.4035 228.57 85.6125 228.105 85.9944C227.64 86.3763 227.323 86.9075 227.206 87.4975C227.089 88.0874 227.18 88.6997 227.464 89.23C227.748 89.7603 228.207 90.1758 228.762 90.4056C229.318 90.6355 229.936 90.6656 230.512 90.4907C231.087 90.3158 231.584 89.9468 231.918 89.4466C232.252 88.9464 232.403 88.3458 232.343 87.7473C232.284 87.1487 232.019 86.5892 231.594 86.164C231.353 85.9222 231.066 85.7305 230.75 85.5999C230.434 85.4693 230.096 85.4024 229.754 85.403Z" fill="white"/>
</g>
</g>
<g id="Group 95">
<g id="Group 94">
<path id="Rectangle 45" d="M236.462 79.8281L234.057 82.233L235.524 83.7003L237.929 81.2954L236.462 79.8281Z" fill="white"/>
</g>
</g>
<g id="Group 97">
<g id="Group 96">
<path id="Rectangle 46" d="M223.043 79.8278L221.576 81.295L223.981 83.6999L225.448 82.2326L223.043 79.8278Z" fill="white"/>
</g>
</g>
<g id="Group 99">
<g id="Group 98">
<path id="Rectangle 47" d="M223.981 92.3091L221.576 94.714L223.043 96.1813L225.448 93.7764L223.981 92.3091Z" fill="white"/>
</g>
</g>
<g id="Group 101">
<g id="Group 100">
<path id="Rectangle 48" d="M235.524 92.3086L234.057 93.776L236.462 96.1806L237.929 94.7132L235.524 92.3086Z" fill="white"/>
</g>
</g>
</g>
</g>
</g>
<g id="Group 105">
<path id="Ellipse 1" d="M99.6839 113.293C103.981 108.996 103.981 102.03 99.6839 97.7327C95.3869 93.4358 88.4202 93.4358 84.1233 97.7327C79.8263 102.03 79.8263 108.996 84.1233 113.293C88.4202 117.59 95.3869 117.59 99.6839 113.293Z" fill="white"/>
</g>
<g id="Group 106">
<path id="Ellipse 2" d="M295.143 109.724C297.468 104.11 294.802 97.6733 289.188 95.3478C283.574 93.0223 277.137 95.6883 274.812 101.303C272.486 106.917 275.152 113.353 280.766 115.679C286.381 118.004 292.817 115.338 295.143 109.724Z" fill="white"/>
</g>
<g id="Group 107">
<path id="Rectangle 49" d="M85.854 221.084H102.639V226.853C102.639 227.326 102.546 227.794 102.365 228.231C102.184 228.667 101.919 229.064 101.585 229.399C101.25 229.733 100.853 229.998 100.417 230.179C99.9799 230.36 99.5117 230.453 99.039 230.453H89.454C88.4992 230.453 87.5835 230.074 86.9084 229.399C86.2333 228.723 85.854 227.808 85.854 226.853V221.084Z" fill="#676868"/>
</g>
<g id="Group 108">
<path id="Rectangle 50" d="M287.428 230.456H277.849C276.894 230.456 275.979 230.077 275.303 229.402C274.628 228.726 274.249 227.811 274.249 226.856V221.084H291.028V226.856C291.028 227.811 290.649 228.726 289.974 229.402C289.298 230.077 288.383 230.456 287.428 230.456V230.456Z" fill="#676868"/>
</g>
<g id="Group 110">
<g id="Group 109">
<path id="Path 54" d="M254.613 180.766H122.269C119.15 180.743 116.167 179.484 113.975 177.265C111.783 175.045 110.561 172.047 110.576 168.928V145.291H112.651V168.928C112.634 171.497 113.638 173.968 115.441 175.799C117.244 177.629 119.7 178.669 122.269 178.691H254.613C257.182 178.67 259.638 177.63 261.442 175.799C263.245 173.969 264.249 171.498 264.232 168.928V145.291H266.307V168.928C266.322 172.047 265.1 175.046 262.908 177.265C260.715 179.484 257.732 180.743 254.613 180.766V180.766Z" fill="#E1A705"/>
</g>
</g>
</g>
<g id="Group 115">
<g id="Group 112">
<path id="Path 55" d="M90.229 151.258C76.505 149.999 61.429 148.072 61.521 148.085C55.767 147.231 52.24 144.239 51.189 140.59C47.049 124.098 43.312 109.178 39.337 90.89C38.047 84.952 31.684 81.09 25.127 82.255C18.57 83.42 14.299 89.184 15.59 95.122C15.7163 95.6852 15.8869 96.2376 16.1 96.774C19.356 104.827 22.5177 112.905 25.585 121.006C36.355 149.056 38.365 156.625 45.368 159.298C51.083 161.479 70.637 160.813 90.317 160.637C91.166 156.694 90.584 155.287 90.229 151.258Z" fill="#F2D9D2"/>
</g>
<g id="Group 113">
<path id="Path 56" d="M40.014 90.088C38.626 83.703 31.786 79.546 24.735 80.802C17.684 82.058 13.091 88.253 14.479 94.638C14.6153 95.2435 14.7988 95.8373 15.028 96.414C18.53 105.074 21.93 113.76 25.228 122.471C32.364 122.313 40.434 121.38 46.464 118.132C44.32 109.259 42.201 100.149 40.014 90.088Z" fill="#676868"/>
</g>
<g id="Group 114">
<path id="Path 57" d="M102.514 153.166L109.253 150.077C111.819 148.901 111.162 147.642 109.628 147.777C106.365 148.077 103.205 149.078 100.365 150.713C102.88 148.611 105.293 146.394 107.606 144.063C108.131 143.532 108.867 143.047 108.442 142.119C107.785 141.734 106.22 142.306 105.197 142.766C101.587 144.393 98.3707 146.781 95.769 149.766C96.192 147.416 97.769 145.432 98.428 143.135C98.5551 142.818 98.5551 142.465 98.428 142.148C98.3142 141.979 98.1496 141.85 97.958 141.781C97.7664 141.712 97.5576 141.705 97.362 141.762C96.9733 141.885 96.6188 142.098 96.327 142.383C93.2767 144.986 90.9324 148.316 89.511 152.065L90.318 160.628C96.138 161.278 103.662 160.039 109.331 158.566C110.558 158.248 110.618 157.557 110.308 157.247C109.576 156.515 103.063 156.257 102.043 156.223C104.005 156.169 110.567 155.423 111.377 153.651C112.426 151.355 104.942 153.315 102.514 153.166Z" fill="#F2D9D2"/>
</g>
</g>
<g id="Group 116">
<path id="Path 58" d="M39.617 28.731C39.617 28.731 62.233 29.816 74.792 28.531C75.0578 28.4891 75.3016 28.3583 75.4833 28.1598C75.6651 27.9613 75.7741 27.707 75.7924 27.4385C75.8108 27.17 75.7374 26.9032 75.5844 26.6819C75.4313 26.4605 75.2077 26.2977 74.95 26.22C70.5111 24.9821 65.9242 24.355 61.316 24.356C60.164 25.67 47.115 28.202 39.617 28.731Z" fill="black"/>
</g>
<g id="Group 117">
<path id="Path 59" d="M60.793 20.222C55.3356 22.1436 49.5702 23.0407 43.787 22.868L43.131 14.585C48.2304 14.7084 53.3179 14.0373 58.211 12.596C59.4735 14.9838 60.3452 17.5584 60.793 20.222V20.222Z" fill="#6F7171"/>
</g>
<g id="Group 166">
<g id="Group 118">
<path id="Path 60" d="M347.552 24.834L342.589 23.261C339.998 26.761 338.848 34.433 338.848 41.1C338.814 43.776 339.043 46.4489 339.532 49.08C346.071 46.133 349.094 41.1 349.094 33.444C349.076 30.507 348.554 27.5948 347.552 24.834Z" fill="black"/>
</g>
<g id="Group 128">
<g id="Group 126">
<g id="Group 119">
<path id="Path 61" d="M277.081 392.748L312.767 390.292C312.927 391.478 312.98 392.677 312.925 393.873C312.867 394.96 312.464 395.999 311.773 396.84C311.082 397.681 310.141 398.278 309.086 398.546C304.993 399.646 300.782 400.242 296.545 400.322C289.787 400.322 281.62 400.096 277.636 397.986C277.298 397.807 277.015 397.539 276.82 397.209C276.625 396.88 276.525 396.504 276.531 396.121C276.516 394.973 276.702 393.832 277.081 392.748V392.748Z" fill="#423C52"/>
</g>
<g id="Group 120">
<path id="Path 62" d="M276.686 393.948V393.985C276.57 397.276 294.935 397.285 298.113 397.285C305.741 397.285 312.542 396.847 312.785 389.928C312.892 386.888 311.644 383.483 310.722 381.019L310.099 381.056L295.611 382.008L294.752 382.07C294.479 389.632 277.132 388.218 276.686 393.948Z" fill="#322B42"/>
</g>
<g id="Group 121">
<path id="Path 63" d="M298.675 382.012C299.016 385.602 299.89 388.318 303.897 388.33H303.951C307.861 388.33 309.951 385.89 310.1 381.648C310.107 381.448 310.1 381.261 310.1 381.06L298.675 382.012Z" fill="#F2D9D2"/>
</g>
<g id="Group 123">
<g id="Group 122">
<path id="Path 64" d="M293.086 391.015H293.052C293.001 391.011 292.951 390.997 292.906 390.973C292.86 390.95 292.82 390.918 292.787 390.879C292.754 390.84 292.729 390.795 292.713 390.746C292.698 390.697 292.692 390.646 292.696 390.595C292.714 389.86 292.521 389.134 292.141 388.504C291.761 387.874 291.21 387.366 290.551 387.038C290.454 387.002 290.375 386.929 290.332 386.835C290.288 386.741 290.284 386.634 290.32 386.537C290.356 386.44 290.429 386.361 290.523 386.318C290.617 386.274 290.724 386.27 290.821 386.306C291.621 386.682 292.297 387.28 292.769 388.029C293.24 388.777 293.487 389.645 293.481 390.53L293.473 390.659C293.465 390.756 293.42 390.846 293.349 390.912C293.277 390.978 293.183 391.015 293.086 391.015V391.015Z" fill="white"/>
</g>
</g>
<g id="Group 125">
<g id="Group 124">
<path id="Path 65" d="M289.915 392.126H289.888C289.837 392.122 289.787 392.109 289.741 392.086C289.695 392.063 289.654 392.031 289.62 391.993C289.587 391.954 289.561 391.909 289.545 391.86C289.529 391.812 289.522 391.76 289.526 391.709L289.532 391.609C289.534 390.888 289.333 390.181 288.953 389.569C288.573 388.957 288.028 388.464 287.381 388.146C287.284 388.11 287.205 388.037 287.162 387.943C287.118 387.849 287.114 387.742 287.15 387.645C287.186 387.548 287.259 387.469 287.353 387.426C287.447 387.382 287.554 387.378 287.651 387.414C288.451 387.791 289.127 388.389 289.599 389.138C290.07 389.886 290.317 390.754 290.311 391.639L290.304 391.762C290.297 391.861 290.254 391.953 290.181 392.021C290.109 392.088 290.014 392.126 289.915 392.126V392.126Z" fill="white"/>
</g>
</g>
</g>
<g id="Group 127">
<path id="Path 66" d="M363.541 194.602C363.541 194.602 354.955 215.275 345.571 229.522C336.187 243.769 331.221 267.514 330.957 276.734C330.693 285.954 319.603 364.746 311.737 384.576C305.097 385.918 298.256 385.918 291.616 384.576C291.616 384.576 301.473 216.948 304.523 194.876L317.533 183.704L363.541 194.602Z" fill="#6F7171"/>
</g>
</g>
<g id="Group 129">
<path id="Path 67" d="M325.049 66.782C325.576 69.3194 325.771 71.9144 325.63 74.502C332.773 71.474 336.93 67.958 343.041 63.278C341.12 56.634 340.25 49.789 339.089 42.957C338.633 43.72 338.15 44.471 337.652 45.197C333.752 50.865 328.463 55.645 322.962 60.175C323.835 61.239 324.566 63.966 325.049 66.782Z" fill="#F2D9D2"/>
</g>
<g id="Group 130">
<path id="Path 68" d="M322.963 60.175C323.835 61.239 324.563 63.965 325.049 66.781C331.918 61.901 335.349 53.981 337.805 46.135C337.75 45.822 337.705 45.51 337.653 45.197L337.114 41.897C333.162 48.563 329.168 55.058 322.963 60.175Z" fill="#ECC8BF"/>
</g>
<g id="Group 131">
<path id="Path 69" d="M306.003 39.686C304.309 19.586 309.372 7.22299 324.622 7.78599C343.037 8.46899 346.449 20.245 345.008 29.663C345.071 29.663 345.134 29.663 345.2 29.663C348.6 29.663 349.954 32.479 350.118 35.263C350.37 39.558 348.342 43.568 342.418 43.88C340.196 51.46 328.084 62.644 318.709 63.095C310.409 63.495 308.523 54.344 307.458 48.457C306.094 48.5704 304.72 48.4517 303.395 48.106C303.201 48.0722 303.017 47.994 302.859 47.8777C302.7 47.7613 302.57 47.6098 302.479 47.435C302.389 47.2602 302.34 47.0669 302.336 46.87C302.332 46.6731 302.374 46.4781 302.458 46.3C303.261 44.712 304.651 42.027 306.003 39.686Z" fill="#F2D9D2"/>
</g>
<g id="Group 133">
<g id="Group 132">
<path id="Path 70" d="M312.752 53.439C312.282 53.4419 311.813 53.4152 311.346 53.359C311.215 53.3345 311.098 53.2604 311.02 53.1521C310.942 53.0437 310.909 52.9095 310.927 52.7772C310.945 52.645 311.014 52.5249 311.119 52.442C311.223 52.3591 311.356 52.3197 311.489 52.332C311.54 52.339 316.521 52.99 318.795 50.032C318.879 49.923 319.002 49.8518 319.139 49.8339C319.275 49.8161 319.413 49.8532 319.522 49.937C319.631 50.0208 319.702 50.1445 319.72 50.2808C319.738 50.4172 319.701 50.555 319.617 50.664C317.777 53.06 314.588 53.439 312.752 53.439Z" fill="black"/>
</g>
</g>
<g id="Group 134">
<path id="Path 71" d="M342.692 35.445C343.242 35.045 345.17 32.845 346.076 36.24C346.162 36.518 346.3 36.731 346.217 36.999C346.708 36.728 347.046 34.647 345.643 33.751C345.309 33.5618 344.927 33.4753 344.544 33.5024C344.161 33.5294 343.794 33.6688 343.49 33.903C343.059 34.313 342.778 34.8561 342.692 35.445Z" fill="#855042"/>
</g>
<g id="Group 135">
<path id="Path 72" d="M344.777 36.678C342.886 37.357 342.536 39.669 344.01 40.278C343.812 38.722 344.513 38.02 344.777 36.678Z" fill="#855042"/>
</g>
<g id="Group 152">
<g id="Group 143">
<g id="Group 136">
<path id="Path 73" d="M338.566 393.661L373.904 391.205C374.229 392.377 374.452 393.575 374.569 394.785C374.696 395.817 374.443 396.859 373.859 397.719C373.275 398.578 372.398 399.196 371.392 399.458C367.387 400.568 363.257 401.164 359.102 401.234C352.344 401.234 344.144 401.008 339.862 398.899C339.499 398.723 339.184 398.462 338.946 398.136C338.707 397.811 338.551 397.433 338.492 397.034C338.314 395.914 338.339 394.772 338.566 393.661V393.661Z" fill="#423C52"/>
</g>
<g id="Group 137">
<path id="Path 74" d="M338.333 394.859V394.896C338.683 398.187 357.05 398.196 360.233 398.196C367.861 398.196 374.599 397.758 373.863 390.838C373.539 387.798 371.809 384.395 370.538 381.93L369.92 381.967L355.567 382.918L354.717 382.98C355.524 390.542 337.976 389.128 338.333 394.859Z" fill="#322B42"/>
</g>
<g id="Group 138">
<path id="Path 75" d="M358.64 382.922C359.49 386.513 360.749 389.229 364.757 389.241H364.811C368.721 389.241 370.464 386.801 370.011 382.559C369.99 382.359 369.958 382.171 369.926 381.971L358.64 382.922Z" fill="#F2D9D2"/>
</g>
<g id="Group 140">
<g id="Group 139">
<path id="Path 76" d="M354.271 391.925C354.172 391.925 354.077 391.887 354.005 391.819C353.933 391.752 353.89 391.66 353.883 391.561C353.773 390.781 353.467 390.041 352.995 389.409C352.524 388.778 351.9 388.276 351.183 387.949C351.135 387.932 351.09 387.906 351.052 387.871C351.014 387.837 350.983 387.796 350.961 387.75C350.939 387.703 350.926 387.653 350.923 387.602C350.92 387.551 350.927 387.5 350.944 387.452C350.962 387.403 350.988 387.359 351.022 387.321C351.056 387.282 351.098 387.251 351.144 387.229C351.19 387.207 351.24 387.194 351.291 387.191C351.342 387.189 351.394 387.196 351.442 387.213C352.284 387.582 353.02 388.158 353.58 388.887C354.141 389.616 354.509 390.474 354.65 391.383L354.661 391.507C354.668 391.61 354.634 391.712 354.566 391.79C354.498 391.868 354.402 391.916 354.299 391.924L354.271 391.925Z" fill="white"/>
</g>
</g>
<g id="Group 142">
<g id="Group 141">
<path id="Path 77" d="M351.256 393.04C351.158 393.04 351.063 393.002 350.991 392.935C350.919 392.868 350.875 392.776 350.868 392.678C350.757 391.897 350.452 391.157 349.98 390.526C349.508 389.894 348.885 389.392 348.168 389.064C348.074 389.028 347.997 388.956 347.955 388.864C347.912 388.772 347.907 388.667 347.94 388.572C347.974 388.476 348.043 388.397 348.133 388.352C348.224 388.306 348.328 388.298 348.425 388.328C349.267 388.697 350.003 389.273 350.564 390.002C351.125 390.731 351.492 391.59 351.633 392.499L351.644 392.623C351.651 392.726 351.617 392.828 351.55 392.906C351.482 392.984 351.386 393.032 351.283 393.04H351.256Z" fill="white"/>
</g>
</g>
</g>
<g id="Group 144">
<path id="Path 78" d="M363.529 194.602C363.529 194.602 367.129 220.296 359.499 229.465C355.713 243.793 357.524 270.4 360.804 291.62C362.244 300.937 375.321 364.742 373.48 384.576C366.868 386.17 359.972 386.17 353.36 384.576C353.36 384.576 308.204 216.948 304.55 194.876L314.211 183.704L363.529 194.602Z" fill="#676868"/>
</g>
<g id="Group 151" opacity="0.2">
<g id="Group 146" opacity="0.2">
<g id="Group 145" opacity="0.2">
<path id="Path 79" opacity="0.2" d="M339.902 224.907C339.817 224.907 339.734 224.879 339.667 224.827C334.202 220.671 329.22 214.898 324.432 207.179C324.377 207.091 324.36 206.985 324.384 206.884C324.407 206.784 324.47 206.697 324.558 206.642C324.646 206.588 324.752 206.57 324.853 206.594C324.953 206.617 325.041 206.68 325.095 206.768C329.831 214.404 334.753 220.109 340.139 224.207C340.204 224.257 340.252 224.325 340.275 224.403C340.299 224.481 340.298 224.565 340.272 224.642C340.246 224.719 340.196 224.786 340.129 224.834C340.063 224.882 339.984 224.907 339.902 224.907V224.907Z" fill="#A7B294"/>
</g>
</g>
<g id="Group 148" opacity="0.2">
<g id="Group 147" opacity="0.2">
<path id="Path 80" opacity="0.2" d="M358.605 221.855C358.527 221.855 358.45 221.831 358.386 221.786C357.112 220.876 356.048 219.705 355.265 218.35C354.481 216.995 353.996 215.489 353.843 213.931C353.637 211.206 353.973 208.468 354.831 205.874C354.857 205.785 354.914 205.709 354.991 205.658C355.068 205.607 355.161 205.585 355.253 205.597C357.418 205.903 359.605 206.03 361.791 205.977C361.893 205.977 361.991 206.016 362.066 206.086C362.14 206.155 362.185 206.251 362.191 206.353C362.194 206.456 362.156 206.555 362.085 206.63C362.015 206.705 361.918 206.749 361.815 206.753C359.698 206.807 357.58 206.691 355.482 206.407C354.718 208.807 354.423 211.332 354.614 213.843C354.755 215.289 355.204 216.687 355.93 217.946C356.656 219.204 357.642 220.292 358.823 221.138C358.891 221.185 358.943 221.253 358.97 221.332C358.997 221.41 358.999 221.495 358.974 221.575C358.949 221.654 358.9 221.724 358.833 221.773C358.766 221.822 358.685 221.849 358.602 221.849L358.605 221.855Z" fill="#A7B294"/>
</g>
</g>
<g id="Group 150" opacity="0.2">
<g id="Group 149" opacity="0.2">
<path id="Path 81" opacity="0.2" d="M367.629 385.971C367.557 385.971 367.486 385.951 367.424 385.913C367.362 385.875 367.312 385.821 367.28 385.756C359.333 370.112 333.98 265.867 326.394 234.29L326.06 232.902C326.035 232.802 326.052 232.695 326.105 232.607C326.159 232.518 326.245 232.455 326.346 232.43C326.447 232.405 326.553 232.422 326.641 232.475C326.73 232.529 326.793 232.616 326.818 232.716L327.152 234.108C334.729 265.664 360.067 369.834 367.976 385.408C367.999 385.454 368.013 385.503 368.017 385.554C368.022 385.605 368.016 385.657 368 385.705C367.984 385.754 367.959 385.799 367.925 385.838C367.892 385.877 367.852 385.909 367.806 385.932C367.751 385.958 367.69 385.972 367.629 385.971V385.971Z" fill="#A7B294"/>
</g>
</g>
</g>
</g>
<g id="Group 153">
<path id="Path 82" d="M324.044 71.375C317.519 87.0387 312.604 103.325 309.373 119.983C304.918 143.483 301.621 176.383 301.36 198.212C301.351 199.016 301.6 199.802 302.071 200.453C302.543 201.104 303.211 201.587 303.978 201.829C312.028 204.4 337.338 211 363.435 202.39C364.303 202.103 365.048 201.529 365.546 200.761C366.043 199.994 366.264 199.08 366.172 198.17C364.633 183.035 358.061 117.753 357.764 103.103C357.428 86.503 352.793 65.462 342.589 61.637C338.451 66.324 333.307 69.135 324.044 71.375Z" fill="#3F4040"/>
</g>
<g id="Group 154">
<path id="Path 83" d="M317.3 32.132C317.009 31.5568 316.572 31.0682 316.032 30.7149C315.493 30.3616 314.871 30.1562 314.227 30.119C313.231 29.9146 312.195 30.0723 311.305 30.5638C310.415 31.0553 309.73 31.8483 309.373 32.8C311.128 31.7677 313.171 31.3329 315.195 31.561C315.921 31.6475 316.63 31.8399 317.3 32.132V32.132Z" fill="black"/>
</g>
<g id="Group 155">
<path id="Path 84" d="M314.211 36.129C314.262 36.463 314.179 36.8036 313.98 37.0771C313.782 37.3506 313.484 37.5352 313.151 37.591C312.813 37.5597 312.5 37.3985 312.278 37.1413C312.057 36.8842 311.943 36.551 311.962 36.212C311.911 35.8779 311.994 35.5374 312.193 35.2639C312.391 34.9904 312.689 34.8058 313.022 34.75C313.36 34.7813 313.673 34.9425 313.895 35.1997C314.116 35.4568 314.23 35.79 314.211 36.129V36.129Z" fill="black"/>
</g>
<g id="Group 156">
<path id="Path 85" d="M324.044 71.375L331.069 77.855C331.069 77.855 343.018 68.942 342.611 61.733C338.206 65.714 334 69.089 324.044 71.375Z" fill="white"/>
</g>
<g id="Group 159">
<g id="Group 157">
<path id="Path 86" d="M275.516 150.977C289.238 149.717 304.316 147.791 304.224 147.803C309.978 146.949 313.505 143.957 314.556 140.31C318.696 123.818 322.433 108.897 326.408 90.61C327.698 84.672 334.061 80.81 340.618 81.974C347.175 83.138 351.446 88.903 350.155 94.841C350.029 95.4043 349.858 95.9566 349.645 96.493C346.388 104.546 343.226 112.624 340.16 120.726C329.389 148.775 327.379 156.344 320.376 159.016C314.661 161.197 295.108 160.531 275.428 160.356C274.579 156.412 275.162 155.005 275.516 150.977Z" fill="#F2D9D2"/>
</g>
<g id="Group 158">
<path id="Path 87" d="M263.231 152.885L256.491 149.796C253.926 148.621 254.583 147.361 256.117 147.496C259.38 147.796 262.54 148.798 265.38 150.433C262.865 148.33 260.451 146.113 258.139 143.782C257.614 143.251 256.878 142.767 257.304 141.839C257.96 141.453 259.526 142.025 260.549 142.485C264.159 144.112 267.375 146.5 269.977 149.485C269.554 147.135 267.977 145.151 267.318 142.854C267.191 142.537 267.191 142.184 267.318 141.867C267.432 141.698 267.597 141.57 267.789 141.5C267.98 141.431 268.189 141.424 268.385 141.481C268.774 141.604 269.128 141.817 269.42 142.102C272.47 144.705 274.814 148.035 276.235 151.784L275.429 160.348C269.609 160.997 262.085 159.758 256.416 158.285C255.189 157.967 255.128 157.276 255.438 156.966C256.171 156.236 262.683 155.976 263.703 155.943C261.742 155.889 255.179 155.143 254.37 153.37C253.32 151.074 260.804 153.034 263.231 152.885Z" fill="#F2D9D2"/>
</g>
</g>
<g id="Group 160">
<path id="Path 88" d="M325.836 90.088C327.224 83.703 334.064 79.546 341.116 80.802C348.168 82.058 352.758 88.253 351.371 94.638C351.235 95.2435 351.051 95.8373 350.822 96.414C347.32 105.074 343.92 113.76 340.622 122.471C333.486 122.313 325.416 121.38 319.386 118.132C321.53 109.259 323.649 100.149 325.836 90.088Z" fill="#676868"/>
</g>
<g id="Group 161">
<path id="Path 89" d="M305.912 23.907C303.636 25.269 302.398 25.794 301.062 25.794C299.911 25.7238 298.775 25.4967 297.686 25.119C299.627 26.9774 302.189 28.0499 304.875 28.129C305.539 28.1287 306.201 28.0553 306.849 27.91C306.257 29.0414 305.392 30.0072 304.333 30.72C306.328 30.5783 308.288 30.1206 310.139 29.364C309.856 29.9282 309.496 30.4505 309.069 30.916C311.881 30.5755 314.531 29.4169 316.69 27.584C320.442 29.4772 324.576 30.4915 328.778 30.55C331.975 30.4779 335.137 29.8694 338.132 28.75C338.673 30.1065 338.936 31.5579 338.905 33.018C338.829 35.1797 338.548 37.3293 338.066 39.438C341.003 34.966 345.774 31.007 345.774 25.677C345.774 16.611 334.261 13.105 325.206 13.105C316.171 13.105 307.254 16.461 305.914 23.821" fill="black"/>
</g>
<g id="Group 165">
<g id="Group 162">
<path id="Path 90" d="M348.477 26.32C320.644 27.696 309.371 25.927 305.077 24.975C305.077 24.975 302.79 -0.780992 328.412 0.017008C337.812 0.309008 342.734 5.50601 345.466 10.53C346.728 12.9178 347.6 15.4924 348.047 18.156C348.533 20.8484 348.678 23.5914 348.477 26.32V26.32Z" fill="#676868"/>
</g>
<g id="Group 163">
<path id="Path 91" d="M326.87 26.667C326.87 26.667 349.485 27.752 362.044 26.467C362.31 26.4247 362.553 26.2935 362.735 26.095C362.916 25.8964 363.025 25.6422 363.043 25.3739C363.061 25.1055 362.988 24.8389 362.835 24.6175C362.683 24.3961 362.459 24.2331 362.202 24.155C357.763 22.9175 353.176 22.2904 348.568 22.291C347.416 23.606 334.368 26.138 326.87 26.667Z" fill="#6F7171"/>
</g>
<g id="Group 164">
<path id="Path 92" d="M348.048 18.153C342.591 20.0744 336.825 20.9711 331.042 20.798L330.386 12.516C335.486 12.6394 340.574 11.9684 345.467 10.527C346.729 12.9148 347.601 15.4894 348.048 18.153V18.153Z" fill="#6F7171"/>
</g>
</g>
</g>
</g>
</g>
</g>
<defs>
<clipPath id="clip0_224:321">
<rect width="374.603" height="401.233" fill="white"/>
</clipPath>
</defs>
</svg>
