<svg width="169" height="80" viewBox="0 0 169 80" fill="none" xmlns="http://www.w3.org/2000/svg">
<style>
    #car , #translate {
        transform-origin: center;
        transform-box: fill-box;
    }
    #car{
        animation: translateX 3s linear infinite;
    }
    #translate{
        animation: translateY 3s linear infinite;
    }
    @keyframes translateX {

        0%,
        100% {
            transform: translateX(2px);
        }

        50% {
            transform: translateX(-2px);
        }
    }

    @keyframes translateY {

        0%,
        100% {
            transform: translateY(2px);
        }

        50% {
            transform: translateY(-2px);
        }
    }
</style>
<g id="Frame" clip-path="url(#clip0_237:600)">
<g id="car">
<path id="Path 1" d="M111.789 59.411C111.766 55.424 111.581 55.333 107.52 55.356C90.743 55.402 73.989 55.379 57.235 55.379C55.839 55.396 54.4791 54.9352 53.381 54.073C53.0662 53.8789 52.8194 53.5919 52.6746 53.2516C52.5299 52.9113 52.4944 52.5344 52.573 52.173C52.781 51.256 53.496 51.142 54.281 51.142C54.766 51.142 55.273 51.119 55.758 51.119H104.589C106.135 51.119 107.704 51.188 109.251 51.096C110.959 51.004 111.859 50.225 111.859 48.324C111.813 37.418 111.836 26.512 111.836 15.606V0H104.544V2.589L103.713 14.732C103.685 14.8524 103.669 14.9754 103.667 15.099C102.905 19.704 102.905 24.447 102.559 29.121C102.518 30.1635 102.187 31.1739 101.604 32.0393C101.022 32.9047 100.209 33.5908 99.259 34.021H57.628L57.605 33.998V9.48599C57.9339 9.01249 58.4143 8.66511 58.967 8.50101C59.2313 8.43294 59.4687 8.28604 59.6476 8.07985C59.8265 7.87366 59.9384 7.61791 59.9684 7.3466C59.9985 7.0753 59.9453 6.80128 59.8159 6.56093C59.6865 6.32058 59.487 6.12529 59.244 6.00101C58.621 5.54301 57.513 5.701 56.636 5.701C43.713 5.678 30.79 5.701 17.867 5.701C17.129 5.701 16.39 5.701 15.652 5.724C15.2799 5.69324 14.9098 5.80329 14.615 6.03236C14.3202 6.26144 14.1221 6.59285 14.06 6.961C13.9845 7.28346 14.0358 7.62262 14.2033 7.90833C14.3708 8.19403 14.6417 8.40442 14.96 8.496C15.3954 8.61077 15.7807 8.86609 16.0561 9.22232C16.3315 9.57855 16.4816 10.0157 16.483 10.466C16.46 18.256 16.483 26.046 16.46 33.859C16.4751 34.3125 16.3346 34.7576 16.0617 35.1202C15.7888 35.4828 15.4 35.741 14.96 35.852C10.714 37.181 7.16 35.119 6.398 31.132V26.687H2.24401V30.2C2.26701 36.295 2.313 42.389 2.198 48.461C2.152 50.294 2.936 50.961 4.529 51.142C5.18174 51.1917 5.83665 51.207 6.491 51.188C10.576 51.188 14.66 51.211 18.768 51.165C19.2532 51.0843 19.7512 51.1782 20.1738 51.4299C20.5963 51.6816 20.916 52.0749 21.076 52.54C21.491 53.731 20.499 54.029 19.807 54.556C18.8726 55.2129 17.7373 55.5211 16.599 55.427C11.845 55.404 7.114 55.45 2.361 55.381C0.791998 55.358 0.122997 55.862 0.168997 57.466C0.237997 59.711 -0.199993 61.934 0.123007 64.225C0.377007 66.081 0.931004 66.768 2.823 66.745C8.061 66.653 13.3 66.882 18.515 66.653C21.123 66.538 22.253 67.684 22.807 69.907C23.2644 71.7019 24.1606 73.3551 25.415 74.718C28.692 78.453 32.73 79.85 37.715 79.598C43.553 79.298 49.992 74.993 51.353 69.356C51.93 66.927 53.107 66.675 55.091 66.698C63.929 66.744 72.745 66.721 81.583 66.721H91.645C97.46 66.721 103.253 66.698 109.068 66.744C110.937 66.744 112.022 66.194 111.837 64.063C111.697 62.5 111.789 60.946 111.789 59.411ZM36.905 73.571C35.2581 73.5592 33.6516 73.06 32.288 72.1364C30.9244 71.2128 29.8648 69.9062 29.2428 68.3812C28.6207 66.8563 28.4641 65.1813 28.7926 63.5675C29.1212 61.9536 29.9202 60.4732 31.0889 59.3129C32.2576 58.1525 33.7437 57.3641 35.3599 57.0471C36.976 56.7302 38.6498 56.8988 40.1703 57.5318C41.6907 58.1647 42.9897 59.2337 43.9035 60.6038C44.8173 61.974 45.305 63.5841 45.305 65.231C45.2965 67.4506 44.4069 69.576 42.8316 71.1398C41.2564 72.7036 39.1246 73.5777 36.905 73.57V73.571ZM19.921 34.047C19.921 33.818 19.898 33.566 19.898 33.337V8.959C20.36 8.57 21.283 8.70701 21.975 8.68401C28.598 8.63801 35.198 8.638 41.821 8.638C45.075 8.638 48.352 8.684 51.629 8.638C53.452 8.615 54.398 9.37099 54.398 11.204C54.398 18.421 54.375 25.638 54.398 32.856C54.411 33.2559 54.3402 33.6541 54.19 34.025H19.921V34.047Z" fill="white"/>
<path id="translate" d="M98.636 20.53L75.351 22.769V31.169H98.635L98.636 20.53Z" fill="#E1A705"/>
<path id="Path 3" d="M167.089 55.804C167.066 55.781 167.043 55.781 167.02 55.758H157.461V52.504C157.434 52.3827 157.419 52.2592 157.415 52.135C157.392 51.9644 157.408 51.7908 157.461 51.627V50.542H159.661C160.129 50.4843 160.601 50.4843 161.069 50.542H163.677C163.723 50.519 163.769 50.519 163.815 50.496H165.246V39.858L163.746 39.604L160.723 39.096L147.731 36.95C147.247 36.327 147.085 35.288 146.831 33.419C146.762 32.934 146.623 32.473 146.508 31.988C145.169 26.726 144.477 21.327 143.577 15.973C143.502 15.2855 143.235 14.633 142.807 14.0902C142.378 13.5474 141.805 13.1363 141.154 12.904C139.285 12.119 137.346 12.373 135.385 12.396C129.754 12.488 124.1 12.465 118.469 12.419C116.484 12.396 115.238 12.788 115.146 15.211C115.031 18.372 115.423 21.534 115.169 24.649C114.569 31.664 115.1 38.703 114.869 44.495V54.533C114.869 57.487 114.961 60.418 114.846 63.371C114.754 65.609 115.815 66.556 117.869 66.556C119.992 66.579 122.115 66.464 124.238 66.441C125.715 66.418 127.215 66.649 127.469 68.356C127.818 70.0173 128.476 71.5986 129.407 73.018C132.453 78.464 141.153 81.579 146.83 79.18C151.792 77.08 155.138 73.618 156.361 68.288C156.467 67.8534 156.698 67.4596 157.027 67.1559C157.355 66.8521 157.766 66.6518 158.207 66.58C158.419 66.5124 158.635 66.4583 158.853 66.418C159.779 66.2911 160.719 66.2911 161.645 66.418H168.106V55.781H167.091L167.089 55.804ZM122.55 33.787C122.305 33.5287 122.116 33.2222 121.996 32.887C121.792 32.2539 121.744 31.5805 121.858 30.925C121.977 29.4586 121.993 27.9856 121.904 26.517C121.904 24.625 121.881 22.755 121.927 20.863C121.931 20.6144 121.961 20.3669 122.019 20.125V20.125C122.113 19.7224 122.331 19.3593 122.642 19.087H135.75L140.158 35.379C139.965 35.6607 139.679 35.8651 139.35 35.956L122.55 33.787ZM141.981 73.527C140.32 73.527 138.696 73.0343 137.314 72.1113C135.933 71.1883 134.856 69.8764 134.22 68.3415C133.585 66.8066 133.418 65.1177 133.742 63.4882C134.067 61.8588 134.867 60.3621 136.041 59.1873C137.216 58.0126 138.713 57.2125 140.342 56.8884C141.972 56.5643 143.661 56.7306 145.196 57.3664C146.73 58.0022 148.042 59.0788 148.965 60.4602C149.888 61.8416 150.381 63.4656 150.381 65.127C150.381 67.3548 149.496 69.4914 147.921 71.0667C146.345 72.642 144.209 73.527 141.981 73.527V73.527Z" fill="white"/>
<path id="Path 4" d="M36.816 15.369C37.1765 15.369 37.529 15.2621 37.8288 15.0618C38.1286 14.8614 38.3622 14.5767 38.5002 14.2436C38.6382 13.9105 38.6743 13.544 38.604 13.1903C38.5336 12.8367 38.36 12.5119 38.105 12.2569C37.8501 12.002 37.5253 11.8284 37.1716 11.758C36.818 11.6877 36.4515 11.7238 36.1184 11.8618C35.7852 11.9997 35.5006 12.2334 35.3002 12.5332C35.0999 12.833 34.993 13.1854 34.993 13.546C34.994 14.0292 35.1865 14.4922 35.5281 14.8339C35.8698 15.1755 36.3328 15.3679 36.816 15.369V15.369Z" fill="white"/>
<path id="Path 5" d="M38.639 24.476C38.639 24.1154 38.5321 23.763 38.3318 23.4632C38.1314 23.1634 37.8467 22.9297 37.5136 22.7918C37.1805 22.6538 36.814 22.6177 36.4604 22.688C36.1067 22.7584 35.7819 22.932 35.5269 23.1869C35.272 23.4419 35.0984 23.7667 35.028 24.1203C34.9577 24.474 34.9938 24.8405 35.1318 25.1736C35.2698 25.5067 35.5034 25.7914 35.8032 25.9918C36.103 26.1921 36.4554 26.299 36.816 26.299C37.0562 26.3021 37.2947 26.257 37.5173 26.1665C37.7398 26.076 37.942 25.9418 38.1119 25.7719C38.2818 25.602 38.416 25.3998 38.5065 25.1773C38.597 24.9547 38.6421 24.7163 38.639 24.476V24.476Z" fill="white"/>
<path id="Rectangle 1" d="M50.266 17.343H24.628V18.612H50.266V17.343Z" fill="white"/>
<path id="Rectangle 2" d="M50.266 27.126H24.628V28.395H50.266V27.126Z" fill="white"/>
<path id="Rectangle 3" d="M50.266 28.96H24.628V29.606H50.266V28.96Z" fill="white"/>
</g>
</g>
<defs>
<clipPath id="clip0_237:600">
<rect width="168.104" height="80" fill="white"/>
</clipPath>
</defs>
</svg>
