<svg width="137" height="85" viewBox="0 0 137 85" fill="none" xmlns="http://www.w3.org/2000/svg">
<style>
    #car , #translate {
        transform-origin: center;
        transform-box: fill-box;
    }
    #car{
        animation: translateX 3s linear infinite;
    }
    #translate{
        animation: translateY 3s linear infinite;
    }
    @keyframes translateX {

        0%,
        100% {
            transform: translateX(2px);
        }

        50% {
            transform: translateX(-2px);
        }
    }

    @keyframes translateY {

        0%,
        100% {
            transform: translateY(2px);
        }

        50% {
            transform: translateY(-2px);
        }
    }
</style>
<g id="logo 2" clip-path="url(#clip0_222:2)">
<g id="Group 2">
<g id="car">
<path id="Path 1" d="M84.603 35.19C84.589 32.829 84.481 32.774 82.092 32.79C72.226 32.817 62.373 32.804 52.52 32.804C51.6982 32.8136 50.8982 32.5403 50.254 32.03C50.0684 31.9142 49.9231 31.7438 49.8381 31.5423C49.7531 31.3407 49.7324 31.1178 49.779 30.904C49.901 30.361 50.322 30.293 50.779 30.293C51.064 30.293 51.363 30.279 51.648 30.279H80.365C81.274 30.279 82.197 30.32 83.106 30.265C83.3219 30.2848 83.5395 30.255 83.7422 30.1778C83.9448 30.1007 84.1271 29.9782 84.2752 29.8197C84.4232 29.6613 84.533 29.4711 84.5963 29.2636C84.6595 29.0562 84.6744 28.8371 84.64 28.623C84.613 22.163 84.626 15.703 84.626 9.243V0H80.342V1.534L79.853 8.72701C79.8365 8.79821 79.8274 8.87093 79.826 8.944C79.378 11.672 79.378 14.481 79.175 17.25C79.1514 17.8656 78.9575 18.4626 78.6148 18.9746C78.2721 19.4866 77.7941 19.8935 77.234 20.15H52.751L52.737 20.136V5.618C52.9294 5.33797 53.2116 5.13196 53.537 5.034C53.6918 4.99171 53.8302 4.90388 53.9344 4.78189C54.0386 4.6599 54.1038 4.50939 54.1213 4.34991C54.1389 4.19044 54.1081 4.02937 54.033 3.88762C53.9579 3.74586 53.8418 3.62996 53.7 3.55499C53.334 3.28399 52.682 3.379 52.166 3.379C44.566 3.365 36.966 3.379 29.366 3.379C28.932 3.379 28.497 3.37901 28.066 3.39301C27.8465 3.37555 27.6284 3.44121 27.4551 3.57698C27.2817 3.71275 27.1657 3.90871 27.13 4.12601C27.0852 4.31643 27.1151 4.51675 27.2135 4.68582C27.3119 4.85489 27.4713 4.97985 27.659 5.035C27.9167 5.10312 28.1446 5.25447 28.3074 5.46552C28.4701 5.67656 28.5586 5.93548 28.559 6.202C28.545 10.816 28.559 15.43 28.545 20.058C28.5546 20.3259 28.4724 20.589 28.312 20.8038C28.1516 21.0186 27.9226 21.1722 27.663 21.239C25.163 22.026 23.076 20.805 22.628 18.439V15.81H20.182V17.886C20.196 21.496 20.223 25.106 20.155 28.702C20.128 29.788 20.589 30.181 21.526 30.29C21.9099 30.3193 22.2951 30.3284 22.68 30.317C25.08 30.317 27.48 30.331 29.9 30.303C30.186 30.2559 30.4793 30.3119 30.7279 30.461C30.9764 30.61 31.1639 30.8425 31.257 31.117C31.501 31.823 30.918 31.999 30.511 32.311C29.9627 32.6997 29.2948 32.8824 28.625 32.827C25.825 32.813 23.047 32.841 20.252 32.8C19.329 32.786 18.936 33.085 18.963 34.035C18.8794 35.3668 18.8704 36.7022 18.936 38.035C19.085 39.135 19.411 39.541 20.524 39.528C23.605 39.474 26.685 39.609 29.752 39.474C30.0455 39.425 30.346 39.4368 30.6348 39.5085C30.9236 39.5802 31.1947 39.7104 31.4312 39.891C31.6678 40.0716 31.8648 40.2987 32.0101 40.5585C32.1554 40.8182 32.2459 41.1049 32.276 41.401C32.5443 42.463 33.0713 43.4421 33.81 44.251C34.6907 45.2834 35.8094 46.0861 37.0695 46.5898C38.3296 47.0934 39.6933 47.283 41.043 47.142C44.477 46.966 48.263 44.414 49.064 41.076C49.403 39.637 50.095 39.488 51.264 39.502C56.464 39.529 61.646 39.516 66.844 39.516H72.761C76.181 39.516 79.587 39.502 83.007 39.53C84.107 39.53 84.744 39.204 84.636 37.942C84.549 37.022 84.603 36.1 84.603 35.19ZM40.564 43.577C39.587 43.577 38.6319 43.2873 37.8195 42.7445C37.0071 42.2016 36.3739 41.4301 36 40.5275C35.6261 39.6248 35.5283 38.6315 35.7189 37.6732C35.9095 36.715 36.38 35.8348 37.0709 35.1439C37.7618 34.453 38.642 33.9825 39.6002 33.7919C40.5585 33.6013 41.5518 33.6991 42.4544 34.073C43.3571 34.4469 44.1286 35.0801 44.6715 35.8925C45.2143 36.7049 45.504 37.66 45.504 38.637C45.504 39.9472 44.9835 41.2037 44.0571 42.1301C43.1307 43.0565 41.8742 43.577 40.564 43.577V43.577ZM30.576 20.167C30.576 20.031 30.562 19.882 30.562 19.746V5.306C30.833 5.075 31.376 5.15701 31.783 5.14301C35.678 5.11601 39.559 5.116 43.454 5.116C45.368 5.116 47.295 5.143 49.222 5.116C50.294 5.102 50.851 5.55 50.851 6.636C50.851 10.911 50.837 15.186 50.851 19.461C50.8587 19.6976 50.8172 19.9333 50.729 20.153H30.576V20.167Z" fill="#676868"/>
<path id="translate" d="M77.535 12.173L63.842 13.489V18.429H77.535V12.173Z" fill="#E1A705"/>
<path id="Path 3" d="M118.402 33.155C118.388 33.141 118.375 33.141 118.361 33.128H112.742V31.214C112.726 31.1427 112.717 31.07 112.715 30.997C112.701 30.8962 112.711 30.7937 112.742 30.697V30.059H114.031C114.306 30.0251 114.584 30.0251 114.859 30.059H116.402C116.429 30.045 116.456 30.045 116.483 30.032H117.324V23.776L116.442 23.627L114.664 23.327L107.023 22.065C106.689 21.4231 106.508 20.7125 106.494 19.989C106.453 19.704 106.372 19.433 106.304 19.148C105.517 16.054 105.11 12.878 104.58 9.72999C104.535 9.32654 104.378 8.94384 104.126 8.62556C103.874 8.30728 103.537 8.06625 103.155 7.92999C102.058 7.59301 100.902 7.4908 99.762 7.63C96.451 7.684 93.126 7.67099 89.814 7.64399C88.647 7.62999 87.914 7.86099 87.86 9.28599C87.792 11.145 88.023 13.005 87.873 14.837C87.52 18.963 87.832 23.102 87.697 26.508V32.408C87.697 34.145 87.751 35.869 87.683 37.608C87.629 38.924 88.253 39.481 89.461 39.481C90.71 39.495 91.961 39.427 93.207 39.413C94.075 39.399 94.958 39.535 95.107 40.539C95.3126 41.5158 95.6993 42.4454 96.247 43.28C98.038 46.48 103.155 48.315 106.493 46.903C107.889 46.3912 109.134 45.5361 110.113 44.4166C111.091 43.297 111.772 41.9491 112.093 40.497C112.156 40.2422 112.293 40.0116 112.486 39.8338C112.679 39.656 112.92 39.5389 113.179 39.497C113.303 39.4557 113.43 39.4223 113.559 39.397C114.104 39.3224 114.656 39.3224 115.201 39.397H119.001V33.142H118.401L118.402 33.155ZM92.21 20.208C92.0658 20.0562 91.9548 19.876 91.884 19.679C91.7636 19.3066 91.7358 18.9105 91.803 18.525C91.8731 17.6627 91.8821 16.7965 91.83 15.933C91.83 14.82 91.817 13.721 91.844 12.608C91.8461 12.4618 91.8642 12.3162 91.898 12.174V12.174C91.953 11.937 92.081 11.7233 92.264 11.563H99.972L102.569 21.142C102.456 21.3075 102.287 21.4276 102.094 21.481L92.21 20.208ZM103.637 43.578C102.66 43.578 101.705 43.2883 100.892 42.7454C100.08 42.2026 99.4469 41.4311 99.073 40.5285C98.6991 39.6258 98.6013 38.6325 98.7919 37.6742C98.9825 36.716 99.453 35.8358 100.144 35.1449C100.835 34.454 101.715 33.9835 102.673 33.7929C103.632 33.6023 104.625 33.7001 105.527 34.074C106.43 34.4479 107.202 35.0811 107.744 35.8935C108.287 36.7059 108.577 37.661 108.577 38.638C108.577 39.9475 108.057 41.2034 107.132 42.1297C106.206 43.056 104.95 43.5769 103.641 43.578H103.637Z" fill="#676868"/>
<path id="Path 4" d="M40.785 9.038C40.997 9.038 41.2043 8.97513 41.3806 8.85734C41.5568 8.73954 41.6943 8.57212 41.7754 8.37624C41.8565 8.18036 41.8778 7.96481 41.8364 7.75686C41.795 7.54891 41.6929 7.35791 41.543 7.20798C41.3931 7.05806 41.2021 6.95597 40.9941 6.9146C40.7862 6.87324 40.5706 6.89447 40.3748 6.97561C40.1789 7.05674 40.0114 7.19414 39.8937 7.37043C39.7759 7.54672 39.713 7.75397 39.713 7.96599C39.7135 8.25014 39.8266 8.52252 40.0276 8.72344C40.2285 8.92437 40.5009 9.03747 40.785 9.038V9.038Z" fill="#676868"/>
<path id="Path 5" d="M41.857 14.494C41.857 14.282 41.7941 14.0747 41.6763 13.8984C41.5585 13.7221 41.3911 13.5847 41.1952 13.5036C40.9993 13.4225 40.7838 13.4012 40.5759 13.4426C40.3679 13.484 40.1769 13.5861 40.027 13.736C39.8771 13.8859 39.7749 14.0769 39.7336 14.2849C39.6922 14.4928 39.7135 14.7083 39.7946 14.9042C39.8757 15.1001 40.0131 15.2675 40.1894 15.3853C40.3657 15.5031 40.573 15.566 40.785 15.566C40.9263 15.568 41.0666 15.5417 41.1976 15.4885C41.3286 15.4353 41.4476 15.3565 41.5475 15.2565C41.6475 15.1566 41.7264 15.0376 41.7795 14.9066C41.8327 14.7756 41.859 14.6353 41.857 14.494V14.494Z" fill="#676868"/>
<path id="Rectangle 1" d="M48.422 10.273H33.344V11.019H48.422V10.273Z" fill="#676868"/>
<path id="Rectangle 2" d="M48.422 16.068H33.344V16.814H48.422V16.068Z" fill="#676868"/>
<path id="Rectangle 3" d="M48.422 17.154H33.344V17.534H48.422V17.154Z" fill="#676868"/>
</g>
<path id="Path 6" d="M32.947 81.553H28.17C27.6886 81.5924 27.211 81.4413 26.84 81.132C26.6958 80.9971 26.5823 80.8327 26.5074 80.6499C26.4325 80.4671 26.3979 80.2703 26.406 80.073V78.729H25.456V80.154C25.4493 80.5689 25.5573 80.9776 25.768 81.335C25.979 81.6809 26.2852 81.9587 26.65 82.135C27.0696 82.3337 27.5299 82.4313 27.994 82.42H33.894V77.129H32.944L32.947 81.553Z" fill="#676868"/>
<path id="Rectangle 4" d="M31.154 75.88H30.123V76.993H31.154V75.88Z" fill="#676868"/>
<path id="Rectangle 5" d="M30.079 74.089H29.102V75.148H30.079V74.089Z" fill="#676868"/>
<path id="Rectangle 6" d="M29.084 75.88H28.053V76.993H29.084V75.88Z" fill="#676868"/>
<path id="Rectangle 7" d="M39.888 74.944H38.857V76.057H39.888V74.944Z" fill="#676868"/>
<path id="Rectangle 8" d="M40.896 73.152H39.919V74.211H40.896V73.152Z" fill="#676868"/>
<path id="Path 7" d="M39.975 81.553H37.586C37.334 81.5693 37.0857 81.4864 36.894 81.322C36.7214 81.1082 36.6386 80.8357 36.663 80.562V74.021H35.7V80.63C35.6763 81.0969 35.8262 81.5561 36.121 81.919C36.2844 82.0897 36.4836 82.222 36.7042 82.3066C36.9248 82.3911 37.1614 82.4258 37.397 82.408H40.912V77.115H39.962V81.553H39.975Z" fill="#676868"/>
<path id="Rectangle 9" d="M41.959 74.944H40.928V76.057H41.959V74.944Z" fill="#676868"/>
<path id="Path 8" d="M46.72 78.16C47.0245 77.3773 47.1765 76.5437 47.168 75.704V73.79H46.218V75.704C46.2274 76.3491 46.1497 76.9926 45.987 77.617C44.9886 76.9716 43.9001 76.4776 42.757 76.151V77.101C43.772 77.3663 44.7291 77.8172 45.58 78.431C44.6698 79.733 43.4656 80.8023 42.065 81.552L42.459 82.421H48.077C48.1455 82.0721 48.182 81.7176 48.186 81.362C48.1867 80.771 48.0569 80.1871 47.806 79.652C47.5382 79.0925 47.1701 78.5868 46.72 78.16V78.16ZM47.181 81.553H43.365C44.5031 80.9103 45.482 80.0196 46.229 78.947C46.5544 79.2791 46.8124 79.671 46.989 80.101C47.1378 80.5004 47.2114 80.9238 47.206 81.35C47.2082 81.4185 47.1998 81.487 47.181 81.553V81.553Z" fill="#676868"/>
<path id="Rectangle 10" d="M50.761 74.021H49.811V82.422H50.761V74.021Z" fill="#676868"/>
<path id="Rectangle 11" d="M58.444 75.88H57.413V76.993H58.444V75.88Z" fill="#676868"/>
<path id="Rectangle 12" d="M65.57 83.656H64.539V84.769H65.57V83.656Z" fill="#676868"/>
<path id="Path 9" d="M65.344 77.128H64.394V81.552H60.73V77.115H59.78V83.507H58.056C57.5746 83.5465 57.097 83.3953 56.726 83.086C56.5817 82.9511 56.4683 82.7866 56.3934 82.6039C56.3185 82.4211 56.2839 82.2243 56.292 82.027V79.679H55.342V82.108C55.3288 82.4147 55.3828 82.7204 55.5 83.004C55.6173 83.2876 55.7951 83.5422 56.021 83.75C56.537 84.1796 57.1965 84.3979 57.867 84.361H60.744V82.407H65.358V77.128H65.344Z" fill="#676868"/>
<path id="Rectangle 13" d="M63.499 83.656H62.468V84.769H63.499V83.656Z" fill="#676868"/>
<path id="Rectangle 14" d="M68.635 74.944H67.604V76.057H68.635V74.944Z" fill="#676868"/>
<path id="Rectangle 15" d="M72.763 74.944H71.732V76.057H72.763V74.944Z" fill="#676868"/>
<path id="Rectangle 16" d="M78.976 74.944H77.945V76.057H78.976V74.944Z" fill="#676868"/>
<path id="Path 10" d="M79.052 81.553H76.881C76.5964 81.5867 76.3088 81.5233 76.0649 81.373C75.8209 81.2227 75.6349 80.9943 75.537 80.725L74.937 79.205C74.71 78.5916 74.3373 78.0425 73.851 77.605C73.3717 77.1963 72.7565 76.9822 72.127 77.005C71.7905 77.0011 71.4548 77.0377 71.127 77.114C70.8104 77.2121 70.5018 77.3345 70.204 77.48L70.57 78.28C70.9769 78.053 71.4341 77.9316 71.9 77.927C72.3538 77.9071 72.8017 78.0356 73.176 78.293C73.5517 78.5923 73.8341 78.9927 73.99 79.447L74.614 80.94C74.614 80.926 74.628 80.954 74.641 81.021C73.69 81.3724 72.6828 81.5473 71.669 81.537H69.878C69.6029 81.5543 69.33 81.4778 69.104 81.32C68.8965 81.1608 68.729 80.9554 68.615 80.72V77.107H67.665V82.427C67.7012 82.8573 67.5701 83.2849 67.299 83.621C66.9825 83.9126 66.5747 84.0854 66.145 84.11L66.525 84.979C67.1438 84.9077 67.7099 84.596 68.1009 84.1111C68.4919 83.6261 68.6766 83.0069 68.615 82.387V81.898C68.8197 82.0909 69.0656 82.2349 69.334 82.319C69.334 82.333 69.348 82.346 69.348 82.36C69.356 82.3741 69.3679 82.3855 69.3823 82.3927C69.3967 82.4 69.413 82.4029 69.429 82.401H71.668C72.2437 82.3983 72.8173 82.3312 73.378 82.201C73.9356 82.0808 74.474 81.8843 74.978 81.617C75.2122 81.8854 75.5061 82.0952 75.8361 82.2295C76.1661 82.3637 76.5229 82.4187 76.878 82.39H79.999V77.097H79.049V81.562L79.052 81.553Z" fill="#676868"/>
<path id="Rectangle 17" d="M81.047 74.944H80.016V76.057H81.047V74.944Z" fill="#676868"/>
<path id="Path 11" d="M84.292 77.02C83.7644 77.0034 83.2426 77.135 82.786 77.4C82.3742 77.6366 82.036 77.9828 81.809 78.4C81.589 78.814 81.4727 79.2751 81.47 79.744C81.4671 80.2099 81.574 80.67 81.782 81.087C81.9875 81.4914 82.3025 81.8299 82.691 82.064C83.1219 82.318 83.616 82.4449 84.116 82.43H84.482L84.862 81.561H84.169C83.9336 81.5732 83.6985 81.5334 83.4803 81.4442C83.2622 81.355 83.0664 81.2186 82.907 81.045C82.6068 80.6993 82.4469 80.2537 82.459 79.796C82.4401 79.2956 82.6096 78.8064 82.934 78.425C83.0956 78.2422 83.2965 78.0983 83.5217 78.0043C83.7469 77.9102 83.9903 77.8684 84.234 77.882C84.5632 77.8857 84.891 77.9266 85.211 78.004V82.428C85.2271 82.646 85.1927 82.8647 85.1103 83.0671C85.0279 83.2696 84.8997 83.4502 84.736 83.595C84.2982 83.8986 83.788 84.0811 83.257 84.124L83.651 84.993C84.3496 84.9165 85.0079 84.6275 85.537 84.165C85.7583 83.9252 85.9278 83.6425 86.0352 83.3344C86.1425 83.0262 86.1853 82.6993 86.161 82.374V77.258C86.012 77.231 85.903 77.217 85.849 77.204C85.3378 77.0886 84.816 77.0269 84.292 77.02Z" fill="#676868"/>
<path id="Rectangle 18" d="M100.516 74.944H99.485V76.057H100.516V74.944Z" fill="#676868"/>
<path id="Rectangle 19" d="M102.587 74.944H101.556V76.057H102.587V74.944Z" fill="#676868"/>
<path id="Rectangle 20" d="M106.824 74.944H105.793V76.057H106.824V74.944Z" fill="#676868"/>
<path id="Path 12" d="M109.455 74.021V81.553H108.071C107.8 81.577 107.527 81.5219 107.286 81.3943C107.045 81.2667 106.847 81.0721 106.714 80.834C106.772 80.6264 106.799 80.4115 106.795 80.196V77.129H105.845V80.115C105.853 80.3034 105.824 80.4916 105.758 80.6686C105.693 80.8456 105.593 81.0078 105.465 81.146C105.338 81.2804 105.184 81.3861 105.013 81.4563C104.842 81.5265 104.659 81.5594 104.474 81.553H104.257C103.994 81.5759 103.729 81.526 103.492 81.4088C103.255 81.2915 103.055 81.1114 102.913 80.888C103.041 80.5594 103.105 80.2096 103.103 79.857V77.251C102.456 77.1085 101.797 77.0269 101.135 77.007C100.612 76.9921 100.095 77.1237 99.642 77.387C99.2303 77.6197 98.8918 77.963 98.665 78.378C98.44 78.7741 98.3231 79.2224 98.326 79.678C98.3222 80.0526 98.4011 80.4234 98.557 80.764C98.7109 81.0849 98.9504 81.3573 99.249 81.551H95.992V74.021H95.042V83.521H93.318C92.8366 83.5605 92.359 83.4093 91.988 83.1C91.8437 82.9651 91.7303 82.8006 91.6554 82.6179C91.5805 82.4351 91.5459 82.2384 91.554 82.041V79.693H90.604V82.121C90.5908 82.4276 90.6447 82.7334 90.762 83.017C90.8793 83.3006 91.0571 83.5552 91.283 83.763C91.799 84.1926 92.4586 84.4109 93.129 84.374H96.005V82.421H100.687C101.045 82.4426 101.402 82.3788 101.73 82.2348C102.058 82.0908 102.347 81.8708 102.573 81.593C102.771 81.8551 103.029 82.0666 103.324 82.2104C103.619 82.3543 103.944 82.4265 104.273 82.421H104.667C105.001 82.4313 105.331 82.3586 105.63 82.2094C105.928 82.0601 106.185 81.839 106.377 81.566C106.573 81.8346 106.831 82.0524 107.128 82.2012C107.426 82.3499 107.754 82.4253 108.087 82.421H110.421V74.021H109.455ZM102.155 79.816C102.167 80.2142 102.059 80.6069 101.843 80.942C101.632 81.2446 101.319 81.4614 100.961 81.553C100.735 81.5488 100.513 81.4985 100.308 81.4052C100.102 81.3118 99.9184 81.1773 99.767 81.01C99.4738 80.6773 99.3185 80.2452 99.333 79.802C99.3141 79.3017 99.4836 78.8124 99.808 78.431C99.9677 78.2488 100.167 78.1052 100.39 78.0112C100.613 77.9171 100.855 77.875 101.097 77.888C101.454 77.8913 101.81 77.937 102.156 78.024L102.155 79.816Z" fill="#676868"/>
<path id="Path 13" d="M38.591 66.17H43.409V50.97H41.155V64.256H39.269C37.695 64.256 36.908 63.537 36.908 62.085V59.303H34.655V62.438C34.6152 62.9561 34.6915 63.4765 34.8783 63.9614C35.0651 64.4462 35.3576 64.8833 35.7347 65.2409C36.1117 65.5984 36.5638 65.8673 37.0579 66.028C37.552 66.1888 38.0758 66.2373 38.591 66.17V66.17Z" fill="#676868"/>
<path id="Rectangle 21" d="M68.32 51.871H65.999V53.907H68.32V51.871Z" fill="#676868"/>
<path id="Rectangle 22" d="M65.077 51.871H62.756V53.907H65.077V51.871Z" fill="#676868"/>
<path id="Rectangle 23" d="M83.021 51.871H80.7V53.907H83.021V51.871Z" fill="#676868"/>
<path id="Path 14" d="M92.813 63.3H100.399C100.95 62.0171 101.276 60.6493 101.363 59.256C101.375 58.5199 101.187 57.7943 100.82 57.156C100.451 56.5339 99.9211 56.023 99.286 55.677C98.577 55.3132 97.7887 55.1315 96.992 55.148C95.9189 55.1801 94.8495 55.289 93.792 55.474V61.364H84.441C84.1523 61.389 83.8618 61.348 83.5913 61.244C83.3208 61.1401 83.0776 60.9759 82.88 60.764C82.9461 60.4686 82.978 60.1666 82.975 59.864V55.304H80.722V59.511C80.7479 60.0018 80.5827 60.4835 80.261 60.855C80.1247 61.0129 79.9558 61.1395 79.7659 61.2258C79.576 61.3121 79.3696 61.3562 79.161 61.355H70.461C70.1723 61.3799 69.8818 61.3389 69.6114 61.2349C69.3409 61.131 69.0977 60.9669 68.9 60.755C68.9679 60.4599 69.0014 60.1578 69 59.855V55.455C67.9427 55.2681 66.8732 55.1592 65.8 55.129C65.0171 55.1189 64.2436 55.3005 63.547 55.658C62.9073 55.9816 62.3644 56.4683 61.973 57.069C61.6012 57.6381 61.4031 58.3032 61.403 58.983C61.3747 59.4302 61.4535 59.8777 61.6328 60.2883C61.8121 60.6989 62.0868 61.0608 62.434 61.344H53.192V55.454C52.1344 55.2696 51.065 55.1607 49.992 55.128C49.1953 55.1114 48.407 55.2932 47.698 55.657C47.0543 55.9912 46.5214 56.5049 46.164 57.136C45.797 57.7743 45.6094 58.4998 45.621 59.236C45.6027 59.9774 45.7749 60.7111 46.121 61.367C46.4415 61.9628 46.9278 62.4528 47.521 62.778C48.1372 63.1129 48.8287 63.285 49.53 63.278H49.761L50.63 61.351H49.913C49.6453 61.3678 49.377 61.3269 49.1265 61.231C48.876 61.135 48.649 60.9864 48.461 60.795C48.1062 60.3708 47.9273 59.8269 47.961 59.275C47.961 57.809 48.612 57.063 49.929 57.063C50.2752 57.0692 50.6202 57.1057 50.96 57.172V62.744C50.9807 63.1819 50.8722 63.6163 50.648 63.993C50.4311 64.3153 50.1152 64.5582 49.748 64.685C49.2331 64.8629 48.7008 64.9855 48.16 65.051L49.06 67.06C50.112 66.9364 51.1157 66.549 51.978 65.934C52.3508 65.6016 52.6488 65.1939 52.8524 64.7377C53.056 64.2816 53.1605 63.7875 53.159 63.288H65.875C66.3149 63.305 66.753 63.221 67.1553 63.0423C67.5577 62.8635 67.9137 62.5949 68.196 62.257C68.5166 62.5868 68.8993 62.8499 69.322 63.031C69.6855 63.1934 70.078 63.2811 70.476 63.289H79.84C80.28 63.3061 80.718 63.222 81.1203 63.0432C81.5227 62.8645 81.8787 62.5959 82.161 62.258C82.4816 62.5878 82.8643 62.8509 83.287 63.032C83.6505 63.1944 84.0429 63.2821 84.441 63.29H92.813V63.3ZM96.029 57.207C96.3674 57.1312 96.7133 57.0946 97.06 57.098C98.376 57.098 99.028 57.831 99.028 59.31C99.0177 60.0139 98.908 60.7128 98.702 61.386H96.028V57.206L96.029 57.207ZM66.743 59.514C66.7556 59.915 66.6514 60.3111 66.443 60.654C66.2543 60.9672 65.9684 61.2101 65.629 61.346C65.108 61.303 64.6206 61.0715 64.258 60.695C63.9099 60.3092 63.7249 59.8034 63.742 59.284C63.742 57.818 64.393 57.072 65.71 57.072C66.0562 57.0782 66.4012 57.1147 66.741 57.181L66.743 59.514Z" fill="#676868"/>
<path id="Rectangle 24" d="M136.239 58.45H106.437V59.766H136.239V58.45Z" fill="#676868"/>
<path id="Rectangle 25" d="M29.802 58.45H0V59.766H29.802V58.45Z" fill="#676868"/>
</g>
</g>
<defs>
<clipPath id="clip0_222:2">
<rect width="136.24" height="85" fill="white"/>
</clipPath>
</defs>
</svg>
