<svg xmlns="http://www.w3.org/2000/svg" width="159.28" height="110.56" viewBox="0 0 159.28 110.56">
  <g id="Group_410" data-name="Group 410" transform="translate(-670.5 -2465.76)">
    <g id="Group_395" data-name="Group 395" transform="translate(719.22 2465.76)" opacity="0.1">
      <path id="Path_216" data-name="Path 216" d="M0,0H110.56V110.56H0Z" fill="none"/>
      <path id="Path_217" data-name="Path 217" d="M43.46,21.427V7.607A4.607,4.607,0,0,1,48.067,3h41.46a4.607,4.607,0,0,1,4.607,4.607V81.313a4.607,4.607,0,0,1-4.607,4.607H6.607A4.607,4.607,0,0,1,2,81.313V26.033a4.607,4.607,0,0,1,4.607-4.607ZM15.82,62.887V72.1H38.853V62.887Zm41.46,0V72.1H80.313V62.887Zm0-13.82V58.28H80.313V49.067Zm0-13.82V44.46H80.313V35.247ZM15.82,49.067V58.28H38.853V49.067Z" transform="translate(7.213 10.82)" fill="#e1a705"/>
    </g>
    <path id="Path_212" data-name="Path 212" d="M-138.67-31.99l-8.75,5.46-5.74-9.31,15.61-10.36h11.34V0h-12.46ZM-98,.7q-9.38,0-14-5.88t-4.62-18.13q0-12.32,4.62-18.165t14-5.845q9.52,0,14.105,5.845T-79.31-23.31q0,12.32-4.585,18.165T-98,.7Zm0-10.85a4.568,4.568,0,0,0,4.515-3.01q1.3-3.01,1.3-10.15,0-7.21-1.3-10.22A4.568,4.568,0,0,0-98-36.54a4.568,4.568,0,0,0-4.515,3.01q-1.3,3.01-1.295,10.22,0,7.14,1.295,10.15A4.568,4.568,0,0,0-98-10.15ZM-58.8.7q-9.38,0-14-5.88t-4.62-18.13q0-12.32,4.62-18.165t14-5.845q9.52,0,14.105,5.845T-40.11-23.31q0,12.32-4.585,18.165T-58.8.7Zm0-10.85a4.568,4.568,0,0,0,4.515-3.01q1.3-3.01,1.3-10.15,0-7.21-1.3-10.22A4.568,4.568,0,0,0-58.8-36.54a4.568,4.568,0,0,0-4.515,3.01q-1.3,3.01-1.295,10.22,0,7.14,1.295,10.15A4.568,4.568,0,0,0-58.8-10.15Zm33.74-2.03H-35.91V-22.96h10.85v-10.5h10.78v10.5H-3.29v10.78H-14.28V-1.54H-25.06Z" transform="translate(823.66 2545.32)" fill="#e1a705"/>
  </g>
</svg>
