<svg xmlns="http://www.w3.org/2000/svg" width="112.5" height="112.5" viewBox="0 0 112.5 112.5">
  <g id="Group_409" data-name="Group 409" transform="translate(-1058.5 -2465.76)">
    <g id="Group_394" data-name="Group 394" transform="translate(1058.5 2465.76)" opacity="0.1">
      <path id="Path_214" data-name="Path 214" d="M0,0H112.5V112.5H0Z" fill="none"/>
      <path id="Path_215" data-name="Path 215" d="M59.227,3a9.374,9.374,0,0,1,6.648,2.762l22.7,22.756a9.442,9.442,0,0,1,2.755,6.665v33.8h9.4v9.427h-38.2a18.8,18.8,0,0,1-36.428,0H6.7A4.709,4.709,0,0,1,2,73.7V12.427A9.412,9.412,0,0,1,11.4,3ZM44.314,64.274a9.427,9.427,0,1,0,9.4,9.427A9.412,9.412,0,0,0,44.314,64.274Zm14.1-42.421H20.806v28.28H58.419Zm-9.4,9.427v9.427H30.209V31.28Z" transform="translate(7.178 10.767)" fill="#e1a705"/>
    </g>
    <path id="Path_211" data-name="Path 211" d="M-113.26-10.64l7.49-7.21q4.27-4.41,6.23-6.755a15.945,15.945,0,0,0,2.555-3.815,8.7,8.7,0,0,0,.595-3.29q0-4.41-4.2-4.41a92.582,92.582,0,0,0-10.29.63l-1.61.07-.49-9.45a45.547,45.547,0,0,1,14.49-2.24q7.49,0,11.235,3.5t3.745,10.29a20.118,20.118,0,0,1-.945,6.44,17.874,17.874,0,0,1-3.255,5.6,66.058,66.058,0,0,1-6.58,6.65l-5.25,3.78h16.52V0h-30.24ZM-58.8.7q-9.38,0-14-5.88t-4.62-18.13q0-12.32,4.62-18.165t14-5.845q9.52,0,14.105,5.845T-40.11-23.31q0,12.32-4.585,18.165T-58.8.7Zm0-10.85a4.568,4.568,0,0,0,4.515-3.01q1.3-3.01,1.3-10.15,0-7.21-1.3-10.22A4.568,4.568,0,0,0-58.8-36.54a4.568,4.568,0,0,0-4.515,3.01q-1.3,3.01-1.295,10.22,0,7.14,1.295,10.15A4.568,4.568,0,0,0-58.8-10.15Zm33.74-2.03H-35.91V-22.96h10.85v-10.5h10.78v10.5H-3.29v10.78H-14.28V-1.54H-25.06Z" transform="translate(1172.76 2545.32)" fill="#e1a705"/>
  </g>
</svg>
