<svg xmlns="http://www.w3.org/2000/svg" width="161.78" height="110.56" viewBox="0 0 161.78 110.56">
  <g id="Group_411" data-name="Group 411" transform="translate(-279.5 -2465.76)">
    <g id="Group_396" data-name="Group 396" transform="translate(330.72 2465.76)" opacity="0.1">
      <path id="Path_218" data-name="Path 218" d="M0,0H110.56V110.56H0Z" fill="none"/>
      <path id="Path_219" data-name="Path 219" d="M36.247,61.172V88.527H45.46V61.172A36.859,36.859,0,0,1,77.707,97.74H4A36.858,36.858,0,0,1,36.246,61.172Zm4.607-4.892a27.64,27.64,0,1,1,27.64-27.64A27.632,27.632,0,0,1,40.853,56.28Z" transform="translate(14.427 3.607)" fill="#e1a705"/>
    </g>
    <path id="Path_213" data-name="Path 213" d="M-155.89-10.64l7.49-7.21q4.27-4.41,6.23-6.755a15.945,15.945,0,0,0,2.555-3.815,8.7,8.7,0,0,0,.6-3.29q0-4.41-4.2-4.41a92.582,92.582,0,0,0-10.29.63l-1.61.07-.49-9.45a45.547,45.547,0,0,1,14.49-2.24q7.49,0,11.235,3.5t3.745,10.29a20.118,20.118,0,0,1-.945,6.44,17.874,17.874,0,0,1-3.255,5.6,66.058,66.058,0,0,1-6.58,6.65l-5.25,3.78h16.52V0h-30.24ZM-101.43.7q-9.38,0-14-5.88t-4.62-18.13q0-12.32,4.62-18.165t14-5.845q9.52,0,14.105,5.845T-82.74-23.31q0,12.32-4.585,18.165T-101.43.7Zm0-10.85a4.568,4.568,0,0,0,4.515-3.01q1.3-3.01,1.3-10.15,0-7.21-1.3-10.22a4.568,4.568,0,0,0-4.515-3.01,4.568,4.568,0,0,0-4.515,3.01q-1.3,3.01-1.295,10.22,0,7.14,1.295,10.15A4.568,4.568,0,0,0-101.43-10.15Zm52.92-13.44L-40.25,0H-54.6l-5.04-17.29-5.04.56V0H-77.14V-47.04h12.46v19.53l5.18-.63,5.04-18.9h14.21Zm23.45,11.41H-35.91V-22.96h10.85v-10.5h10.78v10.5H-3.29v10.78H-14.28V-1.54H-25.06Z" transform="translate(435.39 2545.32)" fill="#e1a705"/>
  </g>
</svg>
